<svg width="50" height="50" viewBox="0 0 50 50" fill="none" xmlns="http://www.w3.org/2000/svg">
<path d="M7.45093 17.0491H10.9666V20.1741H7.45093V17.0491Z" fill="#FE7D43"/>
<path d="M28.3184 26.416C30.3139 26.416 31.9316 24.7983 31.9316 22.8027C31.9316 20.8072 30.3139 19.1895 28.3184 19.1895C26.3228 19.1895 24.7051 20.8072 24.7051 22.8027C24.7051 24.7983 26.3228 26.416 28.3184 26.416Z" fill="#FFD15B"/>
<path d="M28.3184 19.1895C27.7967 19.1895 27.3014 19.3009 26.8535 19.4998C28.1189 20.0619 29.002 21.3288 29.002 22.8027C29.002 24.2767 28.1189 25.5436 26.8535 26.1057C27.3014 26.3046 27.7967 26.416 28.3184 26.416C30.314 26.416 31.9316 24.7983 31.9316 22.8027C31.9316 20.8072 30.314 19.1895 28.3184 19.1895Z" fill="#FFC344"/>
<path d="M28.2355 9.91924H3.62615C3.44657 9.91924 3.30848 9.7584 3.33699 9.58105C3.54403 8.29248 4.66112 7.3083 6.00858 7.3083C6.16043 7.3083 6.31033 7.32197 6.45545 7.34629C6.73778 5.63779 8.22039 4.33428 10.0087 4.33428C10.4029 4.33428 10.7816 4.39854 11.136 4.51533C11.4328 2.37861 13.2659 0.732422 15.4846 0.732422C17.9105 0.732422 19.876 2.69883 19.876 5.1248C19.876 5.30684 19.8643 5.48594 19.8429 5.66221C20.3511 5.32246 20.9624 5.1248 21.6205 5.1248C23.1225 5.1248 24.3833 6.15771 24.7317 7.55176C25.0734 7.396 25.4531 7.3084 25.8532 7.3084C27.2007 7.3084 28.3178 8.29258 28.5248 9.58115C28.5533 9.7584 28.4151 9.91924 28.2355 9.91924Z" fill="#EAF9FA"/>
<path d="M28.5248 9.58115C28.3178 8.29258 27.2007 7.3084 25.8532 7.3084C25.4531 7.3084 25.0734 7.396 24.7317 7.55176C24.3832 6.15771 23.1226 5.1248 21.6205 5.1248C20.9624 5.1248 20.3511 5.32246 19.8429 5.66221C19.8643 5.48603 19.876 5.30684 19.876 5.1248C19.876 2.69883 17.9105 0.732422 15.4846 0.732422C14.6219 0.732422 13.8181 0.982227 13.1396 1.41201C14.9253 1.96943 16.2208 3.63604 16.2208 5.60557V5.61387C16.2203 5.83516 16.4455 5.97891 16.6473 5.88779C17.0491 5.70635 17.4953 5.60557 17.9653 5.60557C19.3607 5.60557 20.5478 6.49687 20.9888 7.74101C21.0423 7.89209 21.2072 7.97197 21.3596 7.92217C21.6235 7.83594 21.9054 7.78906 22.1981 7.78906C23.4954 7.78906 24.5788 8.70137 24.8425 9.91924H28.2357C28.4152 9.91934 28.5533 9.7585 28.5248 9.58115Z" fill="#DCF5F8"/>
<path d="M0.732422 46.1425V22.1191C0.732422 22.1191 13.8506 20.996 29.2391 29.7212C44.6275 38.4464 49.2676 39.038 49.2676 39.038V46.1425H0.732422Z" fill="#FFC344"/>
<path d="M29.2392 29.7213C14.9166 21.6005 2.56299 22.0108 0.919922 22.1066C5.7 22.3085 15.4375 23.557 26.3094 29.7213C41.6979 38.4465 46.338 39.0381 46.338 39.0381V46.1426H49.2677V39.0381C49.2677 39.0381 44.6276 38.4465 29.2392 29.7213Z" fill="#FEB237"/>
<path d="M47.7051 49.2676H2.29492C1.43193 49.2676 0.732422 48.5681 0.732422 47.7051V46.1426H49.2676V47.7051C49.2676 48.5681 48.5681 49.2676 47.7051 49.2676Z" fill="#AE6C6C"/>
<path d="M46.3379 46.1426V47.7051C46.3379 48.5681 45.6383 49.2676 44.7754 49.2676H47.7051C48.568 49.2676 49.2676 48.5681 49.2676 47.7051V46.1426H46.3379Z" fill="#9B5E5E"/>
<path d="M49.2676 46.1426V22.8062C49.2676 22.8062 25.9465 21.975 14.1113 46.1426H49.2676Z" fill="#97DA7B"/>
<path d="M46.3379 22.9518V46.1426H49.2676V22.8061C49.2676 22.8061 48.1728 22.7674 46.3379 22.9518Z" fill="#80D261"/>
<path d="M23.9727 22.8027C23.9727 25.199 25.9222 27.1484 28.3184 27.1484C30.7145 27.1484 32.6641 25.199 32.6641 22.8027C32.6641 20.4064 30.7145 18.457 28.3184 18.457C25.9222 18.457 23.9727 20.4065 23.9727 22.8027ZM31.1992 22.8027C31.1992 24.3913 29.9069 25.6836 28.3184 25.6836C26.7298 25.6836 25.4375 24.3913 25.4375 22.8027C25.4375 21.2142 26.7298 19.9219 28.3184 19.9219C29.9069 19.9219 31.1992 21.2143 31.1992 22.8027Z" fill="black"/>
<path d="M29.0508 16.748V15.7715C29.0508 15.367 28.7229 15.0391 28.3184 15.0391C27.9138 15.0391 27.5859 15.367 27.5859 15.7715V16.748C27.5859 17.1525 27.9138 17.4805 28.3184 17.4805C28.7229 17.4805 29.0508 17.1526 29.0508 16.748Z" fill="black"/>
<path d="M32.5996 19.2538C32.787 19.2538 32.9745 19.1823 33.1175 19.0392L33.808 18.3487C34.094 18.0627 34.094 17.5989 33.8079 17.3129C33.5219 17.0268 33.0582 17.0269 32.7721 17.3129L32.0817 18.0034C31.7957 18.2894 31.7957 18.7532 32.0818 19.0392C32.2247 19.1823 32.4122 19.2538 32.5996 19.2538Z" fill="black"/>
<path d="M33.6406 22.8027C33.6406 23.2072 33.9685 23.5352 34.373 23.5352H35.3496C35.7542 23.5352 36.082 23.2072 36.082 22.8027C36.082 22.3982 35.7542 22.0703 35.3496 22.0703H34.373C33.9686 22.0703 33.6406 22.3982 33.6406 22.8027Z" fill="black"/>
<path d="M22.2637 22.0703H21.2871C20.8825 22.0703 20.5547 22.3982 20.5547 22.8027C20.5547 23.2072 20.8825 23.5352 21.2871 23.5352H22.2637C22.6683 23.5352 22.9961 23.2072 22.9961 22.8027C22.9961 22.3982 22.6683 22.0703 22.2637 22.0703Z" fill="black"/>
<path d="M24.0369 19.2538C24.2243 19.2538 24.4118 19.1823 24.5549 19.0392C24.8409 18.7532 24.8409 18.2894 24.5548 18.0034L23.8643 17.3129C23.5783 17.0268 23.1146 17.0269 22.8285 17.3129C22.5425 17.5989 22.5425 18.0627 22.8286 18.3487L23.5192 19.0392C23.662 19.1823 23.8495 19.2538 24.0369 19.2538Z" fill="black"/>
<path d="M3.62641 10.6517H18.0739C18.4785 10.6517 18.8063 10.3237 18.8063 9.91924C18.8063 9.51475 18.4785 9.18682 18.0739 9.18682H4.2143C4.52797 8.5001 5.21713 8.04072 6.00873 8.04072C6.11459 8.04072 6.22416 8.0501 6.33432 8.06865C6.52582 8.10068 6.72299 8.05547 6.88139 7.94229C7.03979 7.8292 7.14662 7.65771 7.17826 7.46572C7.40805 6.07568 8.59838 5.0668 10.0088 5.0668C10.3144 5.0668 10.6165 5.11533 10.9069 5.21104C11.1129 5.27891 11.339 5.25186 11.5234 5.13711C11.7078 5.02227 11.8316 4.83145 11.8616 4.61631C12.1113 2.81963 13.6689 1.46484 15.4848 1.46484C17.5024 1.46484 19.1438 3.10674 19.1438 5.1248C19.1438 5.27158 19.1344 5.42256 19.1161 5.57373C19.0815 5.85791 19.2157 6.13613 19.4595 6.28613C19.7033 6.43604 20.0121 6.43027 20.2502 6.27109C20.6552 6.00039 21.1292 5.85723 21.6208 5.85723C22.7587 5.85723 23.7459 6.62705 24.0215 7.72939C24.0744 7.94043 24.2182 8.11709 24.4142 8.21152C24.6102 8.30596 24.8379 8.3083 25.0359 8.21816C25.2943 8.10039 25.5693 8.04072 25.8536 8.04072C26.6451 8.04072 27.3342 8.5001 27.6479 9.18682H21.4875C21.083 9.18682 20.7551 9.51475 20.7551 9.91924C20.7551 10.3237 21.083 10.6517 21.4875 10.6517H28.236C28.5369 10.6517 28.8213 10.5202 29.0165 10.2911C29.2115 10.0623 29.2958 9.76113 29.2483 9.46484C28.9792 7.79082 27.5516 6.57588 25.8535 6.57588C25.6255 6.57588 25.4009 6.59795 25.1809 6.6417C24.54 5.28682 23.1678 4.39229 21.6207 4.39229C21.2639 4.39229 20.9125 4.43984 20.5746 4.53262C20.2802 1.98477 18.1098 0 15.4848 0C13.2103 0 11.2251 1.51846 10.581 3.63975C10.3917 3.61455 10.2007 3.60186 10.0089 3.60186C8.10483 3.60186 6.46615 4.81943 5.89164 6.57783C4.24526 6.63223 2.8768 7.82949 2.61401 9.46514C2.56655 9.76152 2.65102 10.0626 2.84604 10.2912C3.04125 10.5203 3.32563 10.6517 3.62641 10.6517Z" fill="black"/>
<path d="M50 22.8062C50 22.4118 49.6878 22.0882 49.2938 22.0742C49.2187 22.0715 47.4272 22.0137 44.5846 22.4315C44.1843 22.4904 43.9076 22.8625 43.9665 23.2627C44.0254 23.663 44.3983 23.9396 44.7977 23.8809C46.4806 23.6334 47.7866 23.5611 48.5352 23.5419V25.7677C45.6403 26.0421 40.5523 26.898 35.0033 29.5459C27.8358 32.966 22.009 38.3032 17.677 45.4102H15.301C22.4577 31.6289 33.4149 26.4439 41.4432 24.528C41.8365 24.4342 42.0795 24.0391 41.9855 23.6456C41.8917 23.2521 41.4968 23.0094 41.1031 23.1032C36.5641 24.1865 32.3308 25.9915 28.4935 28.473C21.2251 24.5421 14.5401 22.7966 9.9415 22.0242V20.9066H10.9665C11.3711 20.9066 11.6989 20.5787 11.6989 20.1742V17.7816H12.4125C12.8171 17.7816 13.1449 17.4537 13.1449 17.0492C13.1449 16.6447 12.8171 16.3168 12.4125 16.3168H9.94141V15.249C9.94141 14.8445 9.61357 14.5166 9.20898 14.5166C8.80439 14.5166 8.47656 14.8445 8.47656 15.249V16.3167H6.04219C5.6376 16.3167 5.30977 16.6446 5.30977 17.0491C5.30977 17.4536 5.6376 17.7815 6.04219 17.7815H6.71836V20.1741C6.71836 20.5786 7.04619 20.9065 7.45078 20.9065H8.47656V21.7994C3.7417 21.1398 0.797852 21.3785 0.67002 21.3894C0.291016 21.4218 0 21.7389 0 22.1191V47.7051C0 48.9705 1.02949 50 2.29492 50H11.2333C11.6379 50 11.9657 49.6721 11.9657 49.2676C11.9657 48.8631 11.6379 48.5352 11.2333 48.5352H2.29492C1.83721 48.5352 1.46484 48.1628 1.46484 47.7051V46.875H48.5352V47.7051C48.5352 48.1628 48.1628 48.5352 47.7051 48.5352H14.6536C14.249 48.5352 13.9212 48.8631 13.9212 49.2676C13.9212 49.6721 14.249 50 14.6536 50H47.7051C48.9705 50 50 48.9705 50 47.7051V22.8062ZM8.1832 17.7815H10.234V19.4417H9.21465C9.2127 19.4417 9.21084 19.4414 9.20898 19.4414C9.20713 19.4414 9.20527 19.4417 9.20332 19.4417H8.1832V17.7815ZM14.4001 43.9842C8.02627 42.3861 3.27617 42.3271 1.46484 42.3814V39.6609C3.29053 39.6101 8.68965 39.6724 15.7385 41.6693C15.2751 42.4216 14.8286 43.1931 14.4001 43.9842ZM16.5604 40.3813C9.1125 38.2088 3.47744 38.1309 1.46484 38.1918V35.4719C3.48506 35.4145 9.88564 35.495 18.0995 38.2027C17.5687 38.9081 17.0555 39.6343 16.5604 40.3813ZM19.0562 36.9781C10.3911 34.0351 3.69961 33.9346 1.46484 34.003V31.2835C3.70039 31.2206 11.2977 31.3287 20.787 34.9748C20.1921 35.6207 19.6151 36.2886 19.0562 36.9781ZM21.8833 33.8304C15.7553 31.4049 10.3962 30.4481 6.94717 30.0741C4.36211 29.7938 2.46357 29.7876 1.46484 29.8162V27.0937C2.51875 27.0629 4.76152 27.0682 7.81123 27.4626C11.57 27.9487 17.3193 29.1389 23.7897 32.0352C23.1366 32.6111 22.5011 33.2097 21.8833 33.8304ZM8.91982 23.3438C13.2593 24.0036 19.8598 25.5922 27.1192 29.4005C27.1101 29.4069 27.1007 29.4131 27.0915 29.4196C26.3857 29.9196 25.697 30.4426 25.0255 30.9878C18.1122 27.7979 11.9396 26.5154 7.94707 26.0031C4.85186 25.606 2.58877 25.5942 1.46484 25.6266V22.8171C2.64297 22.7826 5.30508 22.7942 8.91982 23.3438ZM1.46484 43.8501C3.11123 43.8036 7.66328 43.8484 13.7025 45.3208C13.6876 45.3505 13.6729 45.3804 13.658 45.4102H1.46484V43.8501ZM34.6326 45.4102C38.6436 41.7521 43.3096 39.034 48.5352 37.3104V39.5229C44.8575 40.9878 41.4462 42.9662 38.3855 45.4101H34.6326V45.4102ZM29.1227 45.4102C35.5273 38.2914 43.0029 35.1364 48.5352 33.7414V35.7704C42.4198 37.7099 37.0308 40.951 32.5054 45.4102H29.1227ZM24.0835 45.4102C32.0318 34.8513 42.4342 31.4664 48.5352 30.3857V32.2322C42.5187 33.692 34.1442 37.1666 27.1804 45.4102H24.0835ZM48.5352 27.2386V28.8988C42.0793 29.9986 30.696 33.6107 22.2686 45.4102H19.4032C28.6476 30.8967 42.2636 27.8492 48.5352 27.2386ZM40.8081 45.4102C43.1982 43.6892 45.787 42.247 48.5352 41.1046V45.4102H40.8081Z" fill="black"/>
</svg>
