<svg width="50" height="50" viewBox="0 0 50 50" fill="none" xmlns="http://www.w3.org/2000/svg">
<path fill-rule="evenodd" clip-rule="evenodd" d="M20.2734 18.5544C22.122 18.5544 23.6813 17.2531 24.0807 15.5213C24.1454 15.2404 24.1797 14.9481 24.1797 14.6482V12.6951C24.1797 10.5466 22.4219 8.78882 20.2734 8.78882C18.125 8.78882 16.3672 10.5466 16.3672 12.6951V14.6482C16.3672 14.9481 16.4015 15.2403 16.4662 15.5212C16.8654 17.2531 18.4248 18.5544 20.2734 18.5544Z" fill="#FFDCD5"/>
<path fill-rule="evenodd" clip-rule="evenodd" d="M24.0807 15.5213C23.6814 17.2531 22.122 18.5544 20.2734 18.5544C18.4249 18.5544 16.8655 17.2531 16.4663 15.5212C13.5251 16.9464 11.4844 19.9652 11.4844 23.4375L15.3906 23.4372V30.2733H25.1563V23.4372L29.0625 23.4375C29.0626 19.9652 27.0219 16.9465 24.0807 15.5213Z" fill="#8481E2"/>
<path fill-rule="evenodd" clip-rule="evenodd" d="M15.3906 30.2734V23.4373L11.4844 23.4375V30.2735C11.4844 31.3477 12.3633 32.2266 13.4375 32.2266H15.3906V30.2734Z" fill="#FFDCD5"/>
<path fill-rule="evenodd" clip-rule="evenodd" d="M25.1562 23.4373V30.2734V32.2266H27.1094C28.1836 32.2266 29.0625 31.3477 29.0625 30.2735V23.4375L25.1562 23.4373Z" fill="#FFDCD5"/>
<path fill-rule="evenodd" clip-rule="evenodd" d="M25.1562 30.2734H15.3906V32.2266V47.8517L25.1562 47.8516V32.2266V30.2734Z" fill="#C68A65"/>
<path fill-rule="evenodd" clip-rule="evenodd" d="M8.52691 39.7465C8.52691 38.2364 7.29146 37.001 5.7814 37.001C4.27134 37.001 3.03589 38.2364 3.03589 39.7465V41.1192C3.03589 41.8211 3.30278 42.4637 3.74009 42.9504C4.2436 43.5109 4.97319 43.8648 5.7814 43.8648C6.5896 43.8648 7.31919 43.5109 7.82271 42.9504C8.26001 42.4637 8.52691 41.8211 8.52691 41.1192V39.7465Z" fill="#FFDCD5"/>
<path fill-rule="evenodd" clip-rule="evenodd" d="M7.82256 42.9503C7.31894 43.5108 6.58945 43.8647 5.78125 43.8647C4.97305 43.8647 4.24346 43.5108 3.74004 42.9502C2.11074 43.7212 0.976562 45.3828 0.976562 47.2966V49.0236H10.5859V47.2966C10.5859 45.3828 9.45176 43.7212 7.82256 42.9503Z" fill="#FFC144"/>
<path fill-rule="evenodd" clip-rule="evenodd" d="M18.136 39.7465C18.136 38.2364 16.9006 37.001 15.3905 37.001C13.8805 37.001 12.645 38.2364 12.645 39.7465V41.1192C12.645 41.8211 12.9119 42.4637 13.3492 42.9504C13.8528 43.5109 14.5823 43.8648 15.3905 43.8648C16.1987 43.8648 16.9282 43.5109 17.4318 42.9504C17.8691 42.4637 18.136 41.8211 18.136 41.1192V39.7465Z" fill="#FFDCD5"/>
<path fill-rule="evenodd" clip-rule="evenodd" d="M17.4319 42.9503C16.9283 43.5108 16.1988 43.8647 15.3906 43.8647C14.5824 43.8647 13.8528 43.5108 13.3494 42.9502C11.7201 43.7212 10.5859 45.3828 10.5859 47.2966V49.0236H20.1953V47.2966C20.1953 45.3828 19.0611 43.7212 17.4319 42.9503Z" fill="#FFC144"/>
<path fill-rule="evenodd" clip-rule="evenodd" d="M27.7454 39.7465C27.7454 38.2364 26.51 37.001 24.9999 37.001C23.4898 37.001 22.2544 38.2364 22.2544 39.7465V41.1192C22.2544 41.8211 22.5213 42.4637 22.9586 42.9504C23.4622 43.5109 24.1917 43.8648 24.9999 43.8648C25.8081 43.8648 26.5376 43.5109 27.0412 42.9504C27.4785 42.4637 27.7454 41.8211 27.7454 41.1192V39.7465Z" fill="#FFDCD5"/>
<path fill-rule="evenodd" clip-rule="evenodd" d="M27.0413 42.9503C26.5377 43.5108 25.8082 43.8647 25 43.8647C24.1918 43.8647 23.4623 43.5108 22.9588 42.9502C21.3295 43.7212 20.1953 45.3828 20.1953 47.2966V49.0236H29.8047V47.2966C29.8048 45.3828 28.6705 43.7212 27.0413 42.9503Z" fill="#FFC144"/>
<path fill-rule="evenodd" clip-rule="evenodd" d="M37.3548 39.7465C37.3548 38.2364 36.1193 37.001 34.6093 37.001C33.0992 37.001 31.8638 38.2364 31.8638 39.7465V41.1192C31.8638 41.8211 32.1307 42.4637 32.568 42.9504C33.0716 43.5109 33.8011 43.8648 34.6093 43.8648C35.4175 43.8648 36.1471 43.5109 36.6506 42.9504C37.0879 42.4637 37.3548 41.8211 37.3548 41.1192V39.7465Z" fill="#FFDCD5"/>
<path fill-rule="evenodd" clip-rule="evenodd" d="M36.6509 42.9503C36.1473 43.5108 35.4178 43.8647 34.6096 43.8647C33.8014 43.8647 33.0719 43.5108 32.5684 42.9502C30.9391 43.7212 29.8049 45.3828 29.8049 47.2966V49.0236H39.4144V47.2966C39.4143 45.3828 38.2801 43.7212 36.6509 42.9503Z" fill="#FFC144"/>
<path fill-rule="evenodd" clip-rule="evenodd" d="M46.9644 39.7465C46.9644 38.2364 45.729 37.001 44.2189 37.001C42.7088 37.001 41.4734 38.2364 41.4734 39.7465V41.1192C41.4734 41.8211 41.7403 42.4637 42.1776 42.9504C42.6812 43.5109 43.4107 43.8648 44.2189 43.8648C45.0271 43.8648 45.7566 43.5109 46.2602 42.9504C46.6975 42.4637 46.9644 41.8211 46.9644 41.1192V39.7465Z" fill="#FFDCD5"/>
<path fill-rule="evenodd" clip-rule="evenodd" d="M46.2601 42.9503C45.7564 43.5108 45.0269 43.8647 44.2187 43.8647C43.4105 43.8647 42.6811 43.5108 42.1775 42.9502C40.5482 43.7212 39.4141 45.3828 39.4141 47.2966V49.0236H49.0234V47.2966C49.0234 45.3828 47.8893 43.7212 46.2601 42.9503Z" fill="#FFC144"/>
<path fill-rule="evenodd" clip-rule="evenodd" d="M11.4845 23.4374C11.4845 19.9651 13.5252 16.9464 16.4663 15.5213C16.4016 15.2403 16.3673 14.9481 16.3673 14.6482V12.6951C16.3673 10.5467 18.1251 8.78887 20.2735 8.78887C22.422 8.78887 24.1798 10.5467 24.1798 12.6951V14.6482C24.1798 14.9481 24.1455 15.2404 24.0808 15.5214C27.0219 16.9466 29.0626 19.9652 29.0626 23.4375V28.3203H42.5781V4.88281H7.42188V28.3203H11.4844V23.4374H11.4845Z" fill="white"/>
<path fill-rule="evenodd" clip-rule="evenodd" d="M11.4845 28.3203H7.42188V4.88291H42.5781V28.3204H29.0625V30.2735C29.0625 31.3478 28.1836 32.2267 27.1094 32.2267H45.5078C46.0449 32.2267 46.4844 31.7872 46.4844 31.2501V1.95313C46.4844 1.41602 46.0449 0.976562 45.5078 0.976562H4.49219C3.95508 0.976562 3.51562 1.41602 3.51562 1.95313V31.2501C3.51562 31.7872 3.95508 32.2267 4.49219 32.2267H13.4375C12.3633 32.2267 11.4844 31.3478 11.4844 30.2735V28.3203H11.4845Z" fill="#C5D3DE"/>
<path d="M47.6205 42.6269C47.8258 42.1656 47.9408 41.6557 47.9408 41.1192V39.7463C47.9408 37.6939 46.2711 36.0242 44.2188 36.0242C42.1664 36.0242 40.4967 37.694 40.4967 39.7463V41.1192C40.4967 41.6566 40.6121 42.1672 40.818 42.629C40.2624 43.0323 39.7879 43.5223 39.4141 44.0784C39.0403 43.5224 38.5658 43.0324 38.0104 42.629C38.2162 42.1672 38.3317 41.6565 38.3317 41.1191V39.7462C38.3317 37.6938 36.6619 36.0241 34.6096 36.0241C32.5573 36.0241 30.8875 37.6939 30.8875 39.7462V41.1191C30.8875 41.6565 31.003 42.1671 31.2087 42.6289C30.6532 43.0323 30.1786 43.5223 29.8047 44.0784C29.4309 43.5224 28.9564 43.0324 28.401 42.629C28.6069 42.1672 28.7223 41.6565 28.7223 41.1191V39.7462C28.7223 38.0887 27.6331 36.6814 26.1329 36.2009V33.2029H27.1095H45.5079C46.5848 33.2029 47.4609 32.3267 47.4609 31.2498V1.95302C47.4608 0.87617 46.5847 0 45.5078 0H4.49218C3.41533 0 2.53916 0.87617 2.53916 1.95302V31.2499C2.53916 32.3268 3.41533 33.203 4.49218 33.203H13.4376H14.414V36.1551C12.834 36.5853 11.6685 38.0319 11.6685 39.7463V41.1192C11.6685 41.6566 11.784 42.1672 11.9898 42.629C11.4343 43.0323 10.9597 43.5223 10.5859 44.0784C10.2121 43.5224 9.73768 43.0324 9.18221 42.629C9.38807 42.1672 9.5035 41.6565 9.5035 41.1191V39.7462C9.5035 37.6938 7.83377 36.0241 5.78143 36.0241C3.72909 36.0241 2.05927 37.6939 2.05927 39.7462V41.1191C2.05927 41.6556 2.17431 42.1654 2.37949 42.6267C0.892088 43.7063 0 45.4216 0 47.2965V49.0234C0 49.5627 0.437304 50 0.976561 50H49.0234C49.5627 50 50 49.5627 50 49.0234V47.2965C50 45.4223 49.1076 43.7065 47.6205 42.6269ZM4.0122 39.7463C4.0122 38.7709 4.80585 37.9774 5.78124 37.9774C6.75663 37.9774 7.55018 38.7709 7.55018 39.7463V41.1192C7.55018 42.0945 6.75663 42.8881 5.78124 42.8881C4.80585 42.8881 4.0122 42.0945 4.0122 41.1192V39.7463ZM9.60936 48.0469H1.95312V47.2965C1.95312 46.0417 2.59238 44.8558 3.61777 44.145C4.22802 44.5825 4.97479 44.8412 5.78124 44.8412C6.58827 44.8412 7.33553 44.5822 7.94598 44.1441C8.98358 44.8556 9.60945 46.0212 9.60945 47.2966V48.0469H9.60936ZM42.4498 39.7463C42.4498 38.7709 43.2434 37.9774 44.2188 37.9774C45.1941 37.9774 45.9877 38.7709 45.9877 39.7463V41.1192C45.9877 42.0945 45.1941 42.8881 44.2188 42.8881C43.2434 42.8881 42.4498 42.0945 42.4498 41.1192V39.7463ZM32.8405 39.7463C32.8405 38.7709 33.634 37.9774 34.6094 37.9774C35.5848 37.9774 36.3783 38.7709 36.3783 39.7463V41.1192C36.3783 42.0945 35.5848 42.8881 34.6094 42.8881C33.634 42.8881 32.8405 42.0945 32.8405 41.1192V39.7463ZM32.446 44.145C33.0563 44.5825 33.803 44.8412 34.6094 44.8412C35.4164 44.8412 36.1637 44.5822 36.7741 44.1441C37.8117 44.8556 38.4376 46.0212 38.4376 47.2966V48.047H30.7814V47.2966C30.7813 46.0417 31.4205 44.8559 32.446 44.145ZM28.8282 48.0469H21.1719V47.2965C21.1719 46.0417 21.8111 44.8559 22.8366 44.145C23.4468 44.5825 24.1935 44.8412 25 44.8412C25.807 44.8412 26.5542 44.5822 27.1647 44.1441C28.2023 44.8556 28.8282 46.0212 28.8282 47.2966V48.0469ZM16.3672 36.1551V31.2498H16.3673H24.1796V36.1164C22.5208 36.4911 21.2779 37.9758 21.2779 39.7463V41.1192C21.2779 41.6566 21.3933 42.1672 21.5991 42.629C21.0435 43.0324 20.569 43.5224 20.1952 44.0785C19.8213 43.5225 19.3468 43.0325 18.7915 42.6291C18.9973 42.1673 19.1128 41.6566 19.1128 41.1192V39.7463C19.1128 38.0319 17.9472 36.5853 16.3672 36.1551ZM12.461 30.2733V24.4139L14.414 24.4137V31.2498H13.4376C12.8991 31.2498 12.461 30.8118 12.461 30.2733ZM12.5215 22.4607C12.8027 20.2037 14.0513 18.1959 15.9594 16.9319C16.6335 18.1999 17.8494 19.1376 19.2968 19.4326V29.2966H16.3673H16.3672V23.437C16.3672 23.178 16.2642 22.9295 16.0811 22.7464C15.8979 22.5632 15.6495 22.4604 15.3905 22.4604L12.5215 22.4607ZM20.2734 17.5778C18.658 17.5778 17.3438 16.2635 17.3438 14.6481V12.695C17.3438 11.0796 18.658 9.76531 20.2734 9.76531H20.2735C21.8888 9.76531 23.2031 11.0796 23.2031 12.695V14.6481C23.2031 16.2635 21.8888 17.5778 20.2734 17.5778ZM26.769 39.7463V41.1192C26.769 42.0945 25.9754 42.8881 25 42.8881C24.0246 42.8881 23.231 42.0945 23.231 41.1192V39.7463C23.231 38.7709 24.0246 37.9774 25 37.9774C25.9754 37.9774 26.769 38.7709 26.769 39.7463ZM25.1563 22.4605C25.1562 22.4605 25.1562 22.4605 25.1563 22.4605C24.8972 22.4605 24.6489 22.5634 24.4657 22.7465C24.2826 22.9296 24.1796 23.1781 24.1796 23.4371V29.2967H21.25V19.4327C22.6973 19.1378 23.9131 18.2002 24.5872 16.9324C26.4948 18.1965 27.7438 20.2052 28.0254 22.4607L25.1563 22.4605ZM26.1328 24.4137L28.086 24.4139V30.2733C28.086 30.8118 27.6479 31.2498 27.1094 31.2498H26.1328V24.4137ZM4.49218 1.95312L45.5077 1.95302L45.5078 31.2498H29.871C29.9794 30.9442 30.039 30.6157 30.039 30.2733V29.2967H42.578C43.1173 29.2967 43.5546 28.8594 43.5546 28.3202V4.8828C43.5546 4.34355 43.1173 3.90624 42.578 3.90624H29.3942C28.8549 3.90624 28.4176 4.34355 28.4176 4.8828C28.4176 5.42206 28.8549 5.85936 29.3942 5.85936H41.6015V27.3436H30.0391V23.4374C30.0391 21.5991 29.5198 19.8046 28.5372 18.2482C27.6844 16.8976 26.5182 15.7781 25.1435 14.9819C25.151 14.8715 25.1562 14.7604 25.1562 14.648V12.6949C25.1562 10.0025 22.9658 7.81209 20.2734 7.81209C17.5811 7.81209 15.3907 10.0025 15.3907 12.6949V14.648C15.3907 14.7602 15.3959 14.8713 15.4034 14.9816C14.0328 15.7753 12.8696 16.8905 12.0173 18.2363C11.0299 19.7956 10.5079 21.594 10.5079 23.4373V27.3435H10.5078H8.39842V5.85936H20.6051C21.1444 5.85936 21.5817 5.42206 21.5817 4.8828C21.5817 4.34355 21.1444 3.90624 20.6051 3.90624H7.42186C6.8826 3.90624 6.4453 4.34355 6.4453 4.8828V28.3202C6.4453 28.8594 6.8826 29.2967 7.42186 29.2967H10.5078H10.5079V30.2733C10.5079 30.6157 10.5675 30.9442 10.6759 31.2498L4.49228 31.2499L4.49218 1.95312ZM13.6216 39.7463C13.6216 38.7709 14.4151 37.9774 15.3905 37.9774C16.366 37.9774 17.1595 38.7709 17.1595 39.7463V41.1192C17.1595 42.0945 16.366 42.8881 15.3905 42.8881C14.4151 42.8881 13.6216 42.0945 13.6216 41.1192V39.7463ZM11.5625 47.2965C11.5625 46.0417 12.2016 44.8559 13.2271 44.145C13.8374 44.5825 14.5841 44.8412 15.3905 44.8412C16.1975 44.8412 16.9448 44.5822 17.5552 44.1441C18.5928 44.8556 19.2187 46.0212 19.2187 47.2966V48.047H11.5625V47.2965ZM48.0469 48.0469H40.3907V47.2965C40.3907 46.0417 41.0299 44.8559 42.0554 44.145C42.6656 44.5825 43.4123 44.8412 44.2188 44.8412C45.0258 44.8412 45.7731 44.5822 46.3835 44.1441C47.421 44.8556 48.0469 46.0212 48.0469 47.2966V48.0469Z" fill="black"/>
<path d="M25.0001 5.85938C25.5393 5.85938 25.9766 5.42207 25.9766 4.88281C25.9766 4.34355 25.5393 3.90625 25.0001 3.90625H24.9994C24.4601 3.90625 24.0232 4.34355 24.0232 4.88281C24.0232 5.42207 24.4608 5.85938 25.0001 5.85938Z" fill="black"/>
<path d="M29.3943 9.76538H38.6718C39.2111 9.76538 39.6484 9.32808 39.6484 8.78882C39.6484 8.24956 39.2111 7.81226 38.6718 7.81226H29.3943C28.855 7.81226 28.4177 8.24956 28.4177 8.78882C28.4177 9.32808 28.855 9.76538 29.3943 9.76538Z" fill="black"/>
<path d="M38.6719 11.7188H31.1892C30.65 11.7188 30.2126 12.1561 30.2126 12.6953C30.2126 13.2346 30.65 13.6719 31.1892 13.6719H38.6719C39.2112 13.6719 39.6485 13.2346 39.6485 12.6953C39.6485 12.1561 39.2112 11.7188 38.6719 11.7188Z" fill="black"/>
<path d="M38.6719 15.6252H33.8259C33.2867 15.6252 32.8494 16.0625 32.8494 16.6018C32.8494 17.1411 33.2867 17.5784 33.8259 17.5784H38.6719C39.2112 17.5784 39.6485 17.1411 39.6485 16.6018C39.6485 16.0625 39.2112 15.6252 38.6719 15.6252Z" fill="black"/>
</svg>
