<svg width="50" height="50" viewBox="0 0 50 50" fill="none" xmlns="http://www.w3.org/2000/svg">
<g clip-path="url(#clip0)">
<path d="M33.3333 13.8889C33.3333 14.6256 33.0407 15.3321 32.5197 15.8531C31.9988 16.374 31.2923 16.6667 30.5556 16.6667H19.4444C18.7077 16.6667 18.0012 16.374 17.4803 15.8531C16.9593 15.3321 16.6667 14.6256 16.6667 13.8889V2.77778C16.6667 2.04107 16.9593 1.33453 17.4803 0.813592C18.0012 0.292658 18.7077 0 19.4444 0L30.5556 0C31.2923 0 31.9988 0.292658 32.5197 0.813592C33.0407 1.33453 33.3333 2.04107 33.3333 2.77778V13.8889ZM0 19.4444V47.2222C0 47.9589 0.292658 48.6655 0.813592 49.1864C1.33453 49.7073 2.04107 50 2.77778 50H47.2222C47.9589 50 48.6655 49.7073 49.1864 49.1864C49.7073 48.6655 50 47.9589 50 47.2222V19.4444H0Z" fill="#CCD6DD"/>
<path d="M25 16.6667H2.77778C2.04107 16.6667 1.33453 16.9594 0.813592 17.4803C0.292658 18.0013 0 18.7078 0 19.4445H27.7778C27.7778 18.7078 27.4851 18.0013 26.9642 17.4803C26.4433 16.9594 25.7367 16.6667 25 16.6667Z" fill="#99AAB5"/>
<path d="M47.2222 16.6667H24.9999C24.2632 16.6667 23.5567 16.9594 23.0358 17.4803C22.5148 18.0013 22.2222 18.7078 22.2222 19.4445H49.9999C49.9999 18.7078 49.7073 18.0013 49.1864 17.4803C48.6654 16.9594 47.9589 16.6667 47.2222 16.6667Z" fill="#99AAB5"/>
<path d="M2.77783 30.5555H47.2223V36.1111H2.77783V30.5555ZM2.77783 22.2222H47.2223V27.7777H2.77783V22.2222ZM2.77783 38.8888H47.2223V44.4444H2.77783V38.8888Z" fill="#55ACEE"/>
<path d="M11.1111 16.6667H38.8889V50.0001H11.1111V16.6667Z" fill="#E1E8ED"/>
<path d="M13.8889 27.7777H36.1111V33.3332H13.8889V27.7777ZM13.8889 19.4443H36.1111V24.9999H13.8889V19.4443ZM13.8889 36.111H36.1111V41.6666H13.8889V36.111Z" fill="#55ACEE"/>
<path d="M18.0557 44.4443H31.9446V49.9999H18.0557V44.4443Z" fill="#3B88C3"/>
<path d="M30.5554 5.55558H26.3888V1.38892H23.611V5.55558H19.4443V8.33336H23.611V12.5H26.3888V8.33336H30.5554V5.55558Z" fill="#DD2E44"/>
<path d="M36.1111 13.8889H13.8889C13.1521 13.8889 12.4456 14.1816 11.9247 14.7025C11.4037 15.2234 11.1111 15.93 11.1111 16.6667H38.8889C38.8889 15.93 38.5962 15.2234 38.0753 14.7025C37.5543 14.1816 36.8478 13.8889 36.1111 13.8889Z" fill="#99AAB5"/>
</g>
<defs>
<clipPath id="clip0">
<rect width="50" height="50" fill="white"/>
</clipPath>
</defs>
</svg>
