<svg width="50" height="50" viewBox="0 0 50 50" fill="none" xmlns="http://www.w3.org/2000/svg">
<g clip-path="url(#clip0)">
<path d="M43.1249 7.1875H37.3958V17.1875H43.1249V7.1875Z" fill="#F05540"/>
<path d="M45.3125 2.08325H35.2083V7.49995H45.3125V2.08325Z" fill="#F3705A"/>
<path d="M4.375 26.9792V50H45.2083V26.9792C37.1875 18.9584 32.7083 14.4792 24.7916 6.5625C16.875 14.5833 12.3958 19.0625 4.375 26.9792Z" fill="#FFD15C"/>
<path d="M45.3125 26.9792C37.2917 18.9584 32.8125 14.4792 24.8958 6.5625C20.8333 10.5208 17.7083 13.6458 14.5833 16.7708C11.4583 19.8958 8.3333 23.0208 4.375 26.9791V31.6666C12.3958 23.6458 16.875 19.1666 24.7917 11.2499C32.8125 19.2707 37.2917 23.7499 45.2084 31.6666V32.2916V26.9791H45.3125V26.9792Z" fill="#F7B64C"/>
<path d="M21.1459 50.0001H8.85425V37.9168C8.85425 34.4793 11.6668 31.771 15.0001 31.771C18.4376 31.771 21.1459 34.5835 21.1459 37.9168V50.0001Z" fill="#415A6B"/>
<path d="M40.8334 31.7708H24.7917V45.8333H40.8334V31.7708Z" fill="#344A5E"/>
<path d="M31.9791 33.4375H26.4583V44.1667H31.9791V33.4375Z" fill="#8AD7F8"/>
<path d="M39.1666 33.4375H33.6458V44.1667H39.1666V33.4375Z" fill="#8AD7F8"/>
<path d="M49.0625 22.7083L27.2917 0.9375C26.0417 -0.3125 23.8542 -0.3125 22.6042 0.9375L0.9375 22.7083C-0.3125 23.9583 -0.3125 26.1458 0.9375 27.3958C2.1875 28.6458 4.375 28.6458 5.625 27.3958L25 8.0208L44.375 27.3958C45.625 28.6458 47.8125 28.6458 49.0625 27.3958C50.3125 26.0417 50.3125 23.9583 49.0625 22.7083Z" fill="#F3705A"/>
</g>
<defs>
<clipPath id="clip0">
<rect width="50" height="50" fill="white"/>
</clipPath>
</defs>
</svg>
