<svg width="50" height="50" viewBox="0 0 50 50" fill="none" xmlns="http://www.w3.org/2000/svg">
<g clip-path="url(#clip0)">
<path d="M30.7292 38.2292C31.3542 36.1459 32.6042 34.2709 34.2709 32.8125C37.3959 30.2083 39.3751 26.25 39.3751 21.875C39.3751 13.75 32.6043 7.08328 24.2709 7.49998C16.875 7.81248 10.8333 14.0625 10.625 21.4583C10.5208 26.0417 12.5 30.1042 15.7292 32.8125C17.5 34.2708 18.75 36.1458 19.375 38.2292H30.7292Z" fill="#FFD15C"/>
<path d="M23.646 38.4376H24.5835L20.4168 22.9168C20.521 22.9168 20.6251 22.9168 20.7293 22.9168C21.2501 22.9168 21.771 22.7085 22.1876 22.2918C22.3959 22.0835 22.6043 21.9793 22.9168 21.9793C23.2293 21.9793 23.4376 22.0835 23.646 22.2918C24.3752 23.1251 25.6251 23.1251 26.3543 22.2918C26.5626 22.0835 26.771 21.9793 27.0834 21.9793C27.2918 21.9793 27.6042 22.0835 27.8126 22.2918C28.2293 22.7085 28.6459 22.9168 29.2709 22.9168C29.3751 22.9168 29.4792 22.9168 29.5834 22.9168L25.521 38.4376H26.4585L30.7292 22.1876C30.7292 21.9793 30.7292 21.7709 30.5209 21.6668C30.3126 21.5626 30.1042 21.6668 30.0001 21.771C29.7918 21.9793 29.5834 22.0835 29.3751 22.0835C29.0626 22.0835 28.8543 21.9793 28.5418 21.771C28.1251 21.3543 27.7085 21.146 27.1876 21.146C26.6667 21.146 26.2501 21.3543 25.8334 21.771C25.4168 22.1877 24.7918 22.1877 24.3752 21.771C24.0627 21.3543 23.5419 21.146 23.021 21.146C22.5002 21.146 21.9793 21.3543 21.6668 21.771C21.4585 21.9793 21.146 22.0835 20.8335 22.0835C20.6252 22.0835 20.3127 21.9793 20.2085 21.771C20.1043 21.6668 19.896 21.5627 19.6877 21.6668C19.4794 21.771 19.3752 21.9793 19.4794 22.1876L23.646 38.4376Z" fill="white"/>
<path d="M21.7708 47.8125C22.2917 49.0625 23.5417 50 25 50C26.4583 50 27.7083 49.0625 28.2292 47.8125H21.7708Z" fill="#344A5E"/>
<path d="M28.8542 47.9167H21.25C20.2083 47.9167 19.375 47.0834 19.375 46.0417V38.125H30.7292V46.0417C30.7292 47.0833 29.8958 47.9167 28.8542 47.9167Z" fill="#344A5E"/>
<path d="M30.625 42.0834H19.375C18.75 42.0834 18.2292 41.5625 18.2292 40.9375C18.2292 40.3125 18.75 39.7917 19.375 39.7917H30.625C31.25 39.7917 31.7708 40.3125 31.7708 40.9375C31.7708 41.5625 31.25 42.0834 30.625 42.0834Z" fill="#415A6B"/>
<path d="M30.625 45.7293H19.375C18.75 45.7293 18.2292 45.2085 18.2292 44.5835C18.2292 43.9585 18.75 43.4377 19.375 43.4377H30.625C31.25 43.4377 31.7708 43.9585 31.7708 44.5835C31.7708 45.2084 31.25 45.7293 30.625 45.7293Z" fill="#415A6B"/>
<path d="M25 0C24.4792 0 23.9583 0.416699 23.9583 1.0417V4.5834C23.9583 5.1042 24.375 5.6251 25 5.6251C25.625 5.6251 26.0417 5.2084 26.0417 4.5834V1.0417C26.0417 0.416699 25.5208 0 25 0Z" fill="#FFD15C"/>
<path d="M11.0418 6.35427C10.6251 5.93757 10.0001 5.93757 9.58348 6.35427C9.16688 6.77097 9.16678 7.39597 9.58348 7.81257L12.0835 10.3126C12.5002 10.7293 13.1252 10.7293 13.5418 10.3126C13.9584 9.89587 13.9585 9.27087 13.5418 8.85427L11.0418 6.35427Z" fill="#FFD15C"/>
<path d="M7.81265 20.729H4.27095C3.75015 20.729 3.22925 21.1457 3.22925 21.7707C3.22925 22.2915 3.64595 22.8124 4.27095 22.8124H7.81265C8.33345 22.8124 8.85435 22.3957 8.85435 21.7707C8.85435 21.2498 8.33345 20.729 7.81265 20.729Z" fill="#FFD15C"/>
<path d="M12.0835 33.2292L9.58352 35.7292C9.16682 36.1459 9.16682 36.7709 9.58352 37.1875C10.0002 37.6041 10.6252 37.6042 11.0418 37.1875L13.5418 34.6875C13.9585 34.2708 13.9585 33.6458 13.5418 33.2292C13.1251 32.8126 12.5002 32.8125 12.0835 33.2292Z" fill="#FFD15C"/>
<path d="M37.9169 33.2293C37.5002 32.8126 36.8752 32.8126 36.4585 33.2293C36.0418 33.646 36.0418 34.271 36.4585 34.6876L38.9585 37.1876C39.3752 37.6043 40.0002 37.6043 40.4168 37.1876C40.8334 36.7709 40.8335 36.1459 40.4168 35.7293L37.9169 33.2293Z" fill="#FFD15C"/>
<path d="M45.7291 20.729H42.1875C41.6666 20.729 41.1458 21.1457 41.1458 21.7707C41.1458 22.2915 41.5625 22.8124 42.1875 22.8124H45.7291C46.2499 22.8124 46.7708 22.3957 46.7708 21.7707C46.7708 21.2498 46.3541 20.729 45.7291 20.729Z" fill="#FFD15C"/>
<path d="M38.9585 6.35424L36.4585 8.85424C36.0418 9.27094 36.0418 9.89594 36.4585 10.3125C36.8752 10.7292 37.5002 10.7292 37.9168 10.3125L40.4168 7.81254C40.8335 7.39584 40.8335 6.77084 40.4168 6.35424C40.0001 5.93763 39.3752 5.93754 38.9585 6.35424Z" fill="#FFD15C"/>
</g>
<defs>
<clipPath id="clip0">
<rect width="50" height="50" fill="white"/>
</clipPath>
</defs>
</svg>
