<svg width="50" height="50" viewBox="0 0 50 50" fill="none" xmlns="http://www.w3.org/2000/svg">
<path d="M20.0846 29.1052L17.6215 26.6421L0.854134 42.1206C-0.253873 43.1435 -0.288639 44.8826 0.777669 45.9489C1.84398 47.0152 3.58314 46.9805 4.60599 45.8725L20.0846 29.1052Z" fill="#873F30"/>
<path d="M4.53193 45.95C3.50098 46.9809 1.81846 46.9897 0.77793 45.9492C0.470117 45.6414 0.254492 45.2778 0.130371 44.8912C1.05 45.1903 2.09922 44.9715 2.82471 44.246C2.8502 44.2206 2.87559 44.1935 2.90029 44.1673L18.3792 27.3997L20.0848 29.1052L4.60596 45.8728C4.58125 45.899 4.55664 45.9252 4.53193 45.95Z" fill="#6C3328"/>
<path d="M22.51 20.8059L16.8381 27.5715L19.1551 29.8884L25.9208 24.2167L22.51 20.8059Z" fill="#873F30"/>
<path d="M22.5102 20.8059L20.6774 22.9921L21.2273 23.542C21.6321 23.9468 21.6321 24.6031 21.2273 25.0078L17.751 28.4841L19.1553 29.8884L25.9209 24.2167L22.5102 20.8059Z" fill="#6C3328"/>
<path d="M17.7775 31.1984L15.5284 28.9493C14.8782 28.2991 14.8782 27.2448 15.5284 26.5946C16.1786 25.9444 17.2329 25.9444 17.8831 26.5946L20.1322 28.8437C20.7824 29.4939 20.7824 30.5481 20.1322 31.1984C19.482 31.8486 18.4277 31.8486 17.7775 31.1984Z" fill="#BA5D4F"/>
<path d="M20.1315 31.1981C19.8061 31.5235 19.3797 31.6857 18.9549 31.6858C18.5286 31.6858 18.1022 31.5235 17.7768 31.1981L16.072 29.4934C16.3974 29.8187 16.8238 29.9811 17.2494 29.9802C17.675 29.981 18.1013 29.8187 18.4267 29.4934C19.0774 28.8427 19.0766 27.7886 18.4267 27.1387L20.1315 28.8435C20.7822 29.4942 20.7823 30.5475 20.1315 31.1981Z" fill="#A34F41"/>
<path d="M25.449 5.34277L30.4429 10.3367L22.6026 18.177L17.6087 13.1831L25.449 5.34277Z" fill="#BA5D4F"/>
<path d="M33.5413 29.123L28.5473 24.1291L36.3876 16.2888L41.3816 21.2827L33.5413 29.123Z" fill="#A34F41"/>
<path d="M16.2037 14.9042L16.0302 14.7308C15.3724 14.073 15.3724 13.0064 16.0302 12.3485L24.612 3.7668C25.2698 3.10898 26.3363 3.10898 26.9942 3.7668L27.1676 3.94023C27.8254 4.59805 27.8254 5.66455 27.1676 6.32246L18.5859 14.9042C17.9281 15.562 16.8616 15.562 16.2037 14.9042Z" fill="#873F30"/>
<path d="M31.8228 30.5232L31.9962 30.6967C32.654 31.3545 33.7205 31.3545 34.3784 30.6967L42.9602 22.1149C43.618 21.4571 43.618 20.3906 42.9602 19.7327L42.7867 19.5593C42.1289 18.9015 41.0624 18.9015 40.4045 19.5593L31.8228 28.141C31.1649 28.7989 31.1649 29.8654 31.8228 30.5232Z" fill="#6C3328"/>
<path d="M32.6104 8.50244L38.2185 14.1106L26.3773 25.9518L20.7691 20.3437L32.6104 8.50244Z" fill="#FCC16D"/>
<path d="M23.5352 23.1196L35.3764 11.2784L38.2149 14.1169L26.3737 25.9581L23.5352 23.1196Z" fill="#FCA62F"/>
<path d="M32.6376 8.26632L31.2635 7.7046C30.7925 7.51202 30.2519 7.62081 29.8921 7.98068L20.2441 17.6287C19.8842 17.9886 19.7755 18.5291 19.968 19.0001L20.5297 20.3741C20.7575 20.9313 21.4793 21.0766 21.9048 20.651L32.9143 9.64142C33.34 9.21583 33.1947 8.49405 32.6376 8.26632Z" fill="#873F30"/>
<path d="M38.4609 14.0897L39.0226 15.4637C39.2152 15.9347 39.1064 16.4753 38.7466 16.8351L29.0985 26.4831C28.7386 26.843 28.1981 26.9518 27.7271 26.7592L26.3531 26.1975C25.796 25.9698 25.6507 25.248 26.0762 24.8224L37.0858 13.8128C37.5114 13.3872 38.2332 13.5325 38.4609 14.0897Z" fill="#6C3328"/>
<path d="M43.547 41.0919H23.0898V38.2211C23.0898 37.6284 23.5703 37.1479 24.163 37.1479H42.4738C43.0665 37.1479 43.547 37.6284 43.547 38.2211V41.0919Z" fill="#BA5D4F"/>
<path d="M43.5466 38.2211V41.0917H41.3017V38.2211C41.3017 37.6287 40.8209 37.1479 40.2285 37.1479H42.4735C43.0658 37.1479 43.5466 37.6287 43.5466 38.2211Z" fill="#A34F41"/>
<path d="M48.0555 46.7267H18.5812C17.7994 46.7267 17.28 45.9175 17.6055 45.2067L18.6475 42.9316C19.5501 40.9609 21.5187 39.6973 23.6863 39.6973H42.9504C45.118 39.6973 47.0867 40.9609 47.9892 42.9316L49.0312 45.2067C49.3567 45.9175 48.8373 46.7267 48.0555 46.7267Z" fill="#873F30"/>
<path d="M48.056 46.7268H45.1864C45.9677 46.7268 46.487 45.9176 46.1619 45.2072L45.1199 42.9312C44.2174 40.9608 42.2482 39.6968 40.0815 39.6968H42.95C45.1177 39.6968 47.0869 40.9609 47.9895 42.9312L49.0314 45.2072C49.3566 45.9177 48.8372 46.7268 48.056 46.7268Z" fill="#6C3328"/>
<path d="M46.4925 35.3709C46.3015 35.3709 46.1107 35.2978 45.9654 35.1517C45.676 34.8605 45.6774 34.3899 45.9685 34.1004L46.7729 33.3008C47.0641 33.0114 47.5347 33.0129 47.8242 33.3039C48.1135 33.5951 48.1122 34.0657 47.821 34.3552L47.0167 35.1548C46.8716 35.2989 46.682 35.3709 46.4925 35.3709Z" fill="#FCC16D"/>
<path d="M44.1469 33.7084C44.087 33.7084 44.0262 33.7011 43.9655 33.6858C43.5673 33.5859 43.3255 33.1822 43.4253 32.7841L43.7043 31.6718C43.8042 31.2735 44.2082 31.0318 44.6061 31.1316C45.0042 31.2315 45.246 31.6352 45.1462 32.0334L44.8672 33.1457C44.7826 33.4832 44.4797 33.7084 44.1469 33.7084Z" fill="#FCC16D"/>
<path d="M48.1418 37.7264C47.8072 37.7264 47.5034 37.4989 47.4204 37.1595C47.3228 36.7607 47.567 36.3583 47.9658 36.2609L49.0801 35.9883C49.4791 35.8906 49.8811 36.1349 49.9787 36.5337C50.0763 36.9325 49.8321 37.3349 49.4333 37.4323L48.319 37.7049C48.2597 37.7194 48.2003 37.7264 48.1418 37.7264Z" fill="#FCC16D"/>
</svg>
