<svg width="50" height="50" viewBox="0 0 50 50" fill="none" xmlns="http://www.w3.org/2000/svg">
<path d="M25 45.3125C37.0812 45.3125 46.875 35.5187 46.875 23.4375C46.875 11.3563 37.0812 1.5625 25 1.5625C12.9188 1.5625 3.125 11.3563 3.125 23.4375C3.125 35.5187 12.9188 45.3125 25 45.3125Z" fill="#C7E2FC"/>
<path d="M4.57739 15.5828C5.45396 13.3055 6.70005 11.2117 8.24302 9.375H12.1094C13.1883 9.375 14.0626 10.2492 14.0626 11.3281C14.0626 12.407 13.1883 13.2812 12.1094 13.2812H10.5469C9.90005 13.2812 9.37505 13.8063 9.37505 14.4531C9.37505 15.1 8.85005 15.625 8.20318 15.625H4.68755L4.57739 15.5828Z" fill="#669E4F"/>
<path d="M46.7508 21.0938H35.1562V15.625C35.1562 14.7618 35.8555 14.0625 36.7188 14.0625C37.582 14.0625 38.2813 13.3633 38.2813 12.5V11.7188C38.2813 10.8555 38.9805 10.1563 39.8438 10.1563H42.3828L42.3312 10.0891C44.7312 13.2008 46.3125 16.9766 46.7508 21.0938Z" fill="#96CC7F"/>
<path d="M17.9687 2.71719V6.25C17.9687 7.52344 18.5875 8.64453 19.5312 9.35703V11.7805C19.5312 12.6469 20.2593 13.2633 21.1257 13.2812C21.9734 13.2984 22.6562 13.9914 22.6562 14.8438C22.6562 15.707 21.957 16.4062 21.0937 16.4062H15.625H15.339C14.6218 16.4062 13.9492 16.7695 13.5789 17.3391V21.875H25V19.1859C25 18.543 25.4984 17.9516 26.1414 17.968C26.8023 17.9852 27.3437 17.4547 27.3437 16.7969C27.3437 16.15 27.8687 15.625 28.5156 15.625H30.4687C31.332 15.625 32.0312 14.9258 32.0312 14.0625L32.0304 2.71719V2.71641C29.8242 1.96875 27.4593 1.5625 25 1.5625C22.5406 1.5625 20.1757 1.96875 17.9687 2.71719Z" fill="#78B75B"/>
<path d="M42.1875 34.375V43.75C42.1875 44.6133 41.4883 45.3125 40.625 45.3125C39.7617 45.3125 39.0625 44.6133 39.0625 43.75V40.625C39.0625 39.7617 38.3633 39.0625 37.5 39.0625C36.6367 39.0625 35.9375 39.7617 35.9375 40.625V43.75C35.9375 44.6133 35.2383 45.3125 34.375 45.3125C33.5117 45.3125 32.8125 44.6133 32.8125 43.75V34.375C32.8125 35.2383 32.1133 35.9375 31.25 35.9375C30.3867 35.9375 29.6875 35.2383 29.6875 34.375V28.9062C29.6875 26.7492 31.4367 25 33.5938 25H41.4062C43.5633 25 45.3125 26.7492 45.3125 28.9062V34.375C45.3125 35.2383 44.6133 35.9375 43.75 35.9375C42.8867 35.9375 42.1875 35.2383 42.1875 34.375Z" fill="#758190"/>
<path d="M37.5 25C39.6574 25 41.4062 23.2511 41.4062 21.0938C41.4062 18.9364 39.6574 17.1875 37.5 17.1875C35.3426 17.1875 33.5938 18.9364 33.5938 21.0938C33.5938 23.2511 35.3426 25 37.5 25Z" fill="#758190"/>
<path d="M31.25 26.5625C33.4074 26.5625 35.1562 24.8136 35.1562 22.6562C35.1562 20.4989 33.4074 18.75 31.25 18.75C29.0926 18.75 27.3438 20.4989 27.3438 22.6562C27.3438 24.8136 29.0926 26.5625 31.25 26.5625Z" fill="#8892A0"/>
<path d="M35.9375 35.9375V45.3125C35.9375 46.1758 35.2383 46.875 34.375 46.875C33.5117 46.875 32.8125 46.1758 32.8125 45.3125V42.1875C32.8125 41.3242 32.1133 40.625 31.25 40.625C30.3867 40.625 29.6875 41.3242 29.6875 42.1875V45.3125C29.6875 46.1758 28.9883 46.875 28.125 46.875C27.2617 46.875 26.5625 46.1758 26.5625 45.3125V35.9375C26.5625 36.8008 25.8633 37.5 25 37.5C24.1367 37.5 23.4375 36.8008 23.4375 35.9375V30.4688C23.4375 28.3117 25.1867 26.5625 27.3438 26.5625H35.1562C37.3133 26.5625 39.0625 28.3117 39.0625 30.4688V35.9375C39.0625 36.8008 38.3633 37.5 37.5 37.5C36.6367 37.5 35.9375 36.8008 35.9375 35.9375Z" fill="#8892A0"/>
<path d="M7.8125 34.375V43.75C7.8125 44.6133 8.51172 45.3125 9.375 45.3125C10.2383 45.3125 10.9375 44.6133 10.9375 43.75V40.625C10.9375 39.7617 11.6367 39.0625 12.5 39.0625C13.3633 39.0625 14.0625 39.7617 14.0625 40.625V43.75C14.0625 44.6133 14.7617 45.3125 15.625 45.3125C16.4883 45.3125 17.1875 44.6133 17.1875 43.75V34.375C17.1875 35.2383 17.8867 35.9375 18.75 35.9375C19.6133 35.9375 20.3125 35.2383 20.3125 34.375V28.9062C20.3125 26.7492 18.5633 25 16.4062 25H8.59375C6.43672 25 4.6875 26.7492 4.6875 28.9062V34.375C4.6875 35.2383 5.38672 35.9375 6.25 35.9375C7.11328 35.9375 7.8125 35.2383 7.8125 34.375Z" fill="#758190"/>
<path d="M12.5 25C14.6574 25 16.4062 23.2511 16.4062 21.0938C16.4062 18.9364 14.6574 17.1875 12.5 17.1875C10.3426 17.1875 8.59375 18.9364 8.59375 21.0938C8.59375 23.2511 10.3426 25 12.5 25Z" fill="#758190"/>
<path d="M18.75 26.5625C20.9074 26.5625 22.6562 24.8136 22.6562 22.6562C22.6562 20.4989 20.9074 18.75 18.75 18.75C16.5926 18.75 14.8438 20.4989 14.8438 22.6562C14.8438 24.8136 16.5926 26.5625 18.75 26.5625Z" fill="#8892A0"/>
<path d="M14.0625 35.9375V45.3125C14.0625 46.1758 14.7617 46.875 15.625 46.875C16.4883 46.875 17.1875 46.1758 17.1875 45.3125V42.1875C17.1875 41.3242 17.8867 40.625 18.75 40.625C19.6133 40.625 20.3125 41.3242 20.3125 42.1875V45.3125C20.3125 46.1758 21.0117 46.875 21.875 46.875C22.7383 46.875 23.4375 46.1758 23.4375 45.3125V35.9375C23.4375 36.8008 24.1367 37.5 25 37.5C25.8633 37.5 26.5625 36.8008 26.5625 35.9375V30.4688C26.5625 28.3117 24.8133 26.5625 22.6562 26.5625H14.8438C12.6867 26.5625 10.9375 28.3117 10.9375 30.4688V35.9375C10.9375 36.8008 11.6367 37.5 12.5 37.5C13.3633 37.5 14.0625 36.8008 14.0625 35.9375Z" fill="#8892A0"/>
<path d="M29.6875 37.5V46.875C29.6875 47.7383 28.9883 48.4375 28.125 48.4375C27.2617 48.4375 26.5625 47.7383 26.5625 46.875V43.75C26.5625 42.8867 25.8633 42.1875 25 42.1875C24.1367 42.1875 23.4375 42.8867 23.4375 43.75V46.875C23.4375 47.7383 22.7383 48.4375 21.875 48.4375C21.0117 48.4375 20.3125 47.7383 20.3125 46.875V37.5C20.3125 38.3633 19.6133 39.0625 18.75 39.0625C17.8867 39.0625 17.1875 38.3633 17.1875 37.5V32.0312C17.1875 29.8742 18.9367 28.125 21.0938 28.125H28.9062C31.0633 28.125 32.8125 29.8742 32.8125 32.0312V37.5C32.8125 38.3633 32.1133 39.0625 31.25 39.0625C30.3867 39.0625 29.6875 38.3633 29.6875 37.5Z" fill="#A8B0BC"/>
<path d="M25 28.125C27.1574 28.125 28.9062 26.3761 28.9062 24.2188C28.9062 22.0614 27.1574 20.3125 25 20.3125C22.8426 20.3125 21.0938 22.0614 21.0938 24.2188C21.0938 26.3761 22.8426 28.125 25 28.125Z" fill="#A8B0BC"/>
<path d="M47.6562 23.4375C47.6562 10.9453 37.4922 0.78125 25 0.78125C12.5078 0.78125 2.34375 10.9453 2.34375 23.4375C2.34375 26.2953 2.87031 29.0766 3.90469 31.7109V34.375C3.90469 35.6672 4.95625 36.7188 6.24844 36.7188C6.52344 36.7188 6.78438 36.6625 7.02969 36.575V43.75C7.02969 45.0422 8.08125 46.0938 9.37344 46.0938C10.6656 46.0938 11.7172 45.0422 11.7172 43.75V40.625C11.7172 40.1937 12.0672 39.8438 12.4984 39.8438C12.9297 39.8438 13.2797 40.1937 13.2797 40.625V45.3125C13.2797 46.6047 14.3312 47.6562 15.6234 47.6562C16.9156 47.6562 17.9672 46.6047 17.9672 45.3125V42.1875C17.9672 41.7562 18.3172 41.4062 18.7484 41.4062C19.1797 41.4062 19.5297 41.7562 19.5297 42.1875H19.5312V46.875C19.5312 48.1672 20.5828 49.2188 21.875 49.2188C23.1672 49.2188 24.2188 48.1672 24.2188 46.875V43.75C24.2188 43.3187 24.5688 42.9688 25 42.9688C25.4312 42.9688 25.7812 43.3187 25.7812 43.75V46.875C25.7812 48.1672 26.8328 49.2188 28.125 49.2188C29.4172 49.2188 30.4688 48.1672 30.4688 46.875V42.1875C30.4688 41.7562 30.8188 41.4062 31.25 41.4062C31.6812 41.4062 32.0312 41.7562 32.0312 42.1875V45.3125C32.0312 46.6047 33.0828 47.6562 34.375 47.6562C35.6672 47.6562 36.7188 46.6047 36.7188 45.3125V40.625C36.7188 40.1937 37.0687 39.8438 37.5 39.8438C37.9313 39.8438 38.2812 40.1937 38.2812 40.625V43.75C38.2812 45.0422 39.3328 46.0938 40.625 46.0938C41.9172 46.0938 42.9688 45.0422 42.9688 43.75V36.575C43.2141 36.6625 43.475 36.7188 43.75 36.7188C45.0422 36.7188 46.0938 35.6672 46.0938 34.375V31.7141C47.1289 29.0773 47.6562 26.2953 47.6562 23.4375ZM45.7594 27.1773C45.0695 25.4469 43.3805 24.2188 41.4062 24.2188H40.9828C41.5625 23.5727 41.9648 22.7672 42.1156 21.875H46.0297C46.068 22.3914 46.0938 22.9117 46.0938 23.4375C46.0938 24.7031 45.9789 25.9516 45.7594 27.1773ZM9.375 21.0938C9.375 19.3703 10.7766 17.9688 12.5 17.9688C13.6391 17.9688 14.6836 18.5969 15.2297 19.5719C14.5055 20.3969 14.0625 21.4742 14.0625 22.6562C14.0625 23.0211 14.1086 23.3742 14.1875 23.7156C13.6867 24.0391 13.1039 24.2188 12.5 24.2188C10.7766 24.2188 9.375 22.8172 9.375 21.0938ZM15.625 22.6562C15.625 20.9328 17.0266 19.5312 18.75 19.5312C19.8891 19.5312 20.9336 20.1594 21.4789 21.1344C20.7555 21.9594 20.3125 23.0375 20.3125 24.2188C20.3125 24.5836 20.3586 24.9375 20.4375 25.2789C19.9367 25.6008 19.3539 25.7812 18.75 25.7812C17.0266 25.7812 15.625 24.3797 15.625 22.6562ZM21.875 24.2188C21.875 22.4953 23.2766 21.0938 25 21.0938C26.7234 21.0938 28.125 22.4953 28.125 24.2188C28.125 25.9422 26.7234 27.3438 25 27.3438C23.2766 27.3438 21.875 25.9422 21.875 24.2188ZM28.5195 21.1328C29.0656 20.1586 30.1094 19.5312 31.2484 19.5312C32.9719 19.5312 34.3734 20.9328 34.3734 22.6562C34.3734 24.3797 32.9719 25.7812 31.2484 25.7812C30.6453 25.7812 30.0625 25.6016 29.5617 25.2797C29.6414 24.9383 29.6875 24.5844 29.6875 24.2188C29.6875 23.0367 29.2445 21.9586 28.5195 21.1328ZM45.8609 20.3125H42.1156C41.7422 18.0992 39.8172 16.4062 37.4984 16.4062C36.9562 16.4062 36.432 16.5094 35.9375 16.6859V15.625C35.9375 15.1938 36.2875 14.8438 36.7188 14.8438C38.0109 14.8438 39.0625 13.7922 39.0625 12.5V11.7188C39.0625 11.2875 39.4125 10.9375 39.8438 10.9375H41.9781C43.9758 13.6438 45.343 16.8406 45.8609 20.3125ZM34.7688 19.5719C35.3148 18.5969 36.3602 17.9688 37.4984 17.9688C39.2219 17.9688 40.6234 19.3703 40.6234 21.0938C40.6234 22.8172 39.2219 24.2188 37.4984 24.2188C36.8945 24.2188 36.3117 24.0383 35.8109 23.7164C35.8898 23.375 35.9359 23.0219 35.9359 22.6562C35.9359 21.4742 35.493 20.3969 34.7688 19.5719ZM40.7055 9.375H39.8438C38.5516 9.375 37.5 10.4266 37.5 11.7188V12.5C37.5 12.9312 37.15 13.2812 36.7188 13.2812C35.4266 13.2812 34.375 14.3328 34.375 15.625V17.6125C34.0602 17.8938 33.7875 18.2203 33.5562 18.5805C32.8742 18.193 32.0875 17.9688 31.2484 17.9688C29.6344 17.9688 28.157 18.8172 27.307 20.143C26.8422 19.8789 26.3273 19.6938 25.7812 19.6016V19.1859C25.7812 19.057 25.8367 18.9227 25.9266 18.8352C25.9859 18.7781 26.05 18.7492 26.1156 18.7492H26.1211C26.6523 18.7578 27.1547 18.5672 27.5352 18.1961C27.9148 17.825 28.125 17.3289 28.125 16.7969C28.125 16.582 28.3008 16.4062 28.5156 16.4062H30.4688C31.7609 16.4062 32.8125 15.3547 32.8125 14.0625V3.85C35.8555 5.06797 38.5516 6.97188 40.7055 9.375ZM31.25 3.28906V14.0625C31.25 14.4937 30.9 14.8438 30.4688 14.8438H28.5156C27.4383 14.8438 26.5625 15.7195 26.5625 16.7969C26.5625 16.9406 26.4883 17.0344 26.4445 17.0766C26.4016 17.1187 26.3102 17.1875 26.1719 17.1875C26.168 17.1875 26.1641 17.1867 26.1609 17.1867C25.6711 17.1945 25.1992 17.3633 24.8352 17.7172C24.4438 18.0992 24.2188 18.6352 24.2188 19.1867V19.6023C23.6719 19.6945 23.157 19.8797 22.6922 20.1445C21.8422 18.8172 20.3641 17.9688 18.75 17.9688C17.9109 17.9688 17.1242 18.193 16.4422 18.5813C16.0938 18.0375 15.6461 17.5711 15.118 17.2148C15.1914 17.2023 15.2648 17.1875 15.3398 17.1875H21.0938C22.3859 17.1875 23.4375 16.1359 23.4375 14.8438C23.4375 13.5781 22.4078 12.5266 21.1414 12.5C20.7391 12.4922 20.3125 12.2375 20.3125 11.7812V9.35703C20.3125 9.1125 20.1984 8.88203 20.0023 8.73359C19.2063 8.13281 18.75 7.22734 18.75 6.25V3.28906C20.7258 2.675 22.825 2.34375 25 2.34375C27.175 2.34375 29.2742 2.675 31.25 3.28906ZM8.62812 10.1562H12.1094C12.7555 10.1562 13.2812 10.682 13.2812 11.3281C13.2812 11.9742 12.7555 12.5 12.1094 12.5H10.5469C9.46953 12.5 8.59375 13.3758 8.59375 14.4531C8.59375 14.668 8.41797 14.8438 8.20312 14.8438H5.74375C6.50156 13.1523 7.47266 11.5773 8.62812 10.1562ZM5.11562 16.4062H8.20312C9.28047 16.4062 10.1562 15.5305 10.1562 14.4531C10.1562 14.2383 10.332 14.0625 10.5469 14.0625H12.1094C13.6172 14.0625 14.8438 12.8359 14.8438 11.3281C14.8438 9.82031 13.6172 8.59375 12.1094 8.59375H10.0297C12.0492 6.55703 14.482 4.93281 17.1875 3.85V6.25C17.1875 7.58828 17.7523 8.83438 18.75 9.72578V11.7812C18.75 13.0344 19.7867 14.0367 21.1102 14.0625C21.532 14.0711 21.875 14.4219 21.875 14.8438C21.875 15.275 21.525 15.625 21.0938 15.625H15.3398C14.5609 15.625 13.8172 15.9445 13.2852 16.4773C13.0273 16.4336 12.7664 16.4062 12.5 16.4062C9.91484 16.4062 7.8125 18.5086 7.8125 21.0938C7.8125 22.2953 8.27031 23.3883 9.01562 24.2188H8.59219C6.61875 24.2188 4.93047 25.4453 4.23984 27.175C4.02109 25.95 3.90625 24.7023 3.90625 23.4375C3.90625 20.9727 4.33516 18.607 5.11562 16.4062ZM12.4984 38.2812C11.2063 38.2812 10.1547 39.3328 10.1547 40.625V43.75C10.1547 44.1813 9.80469 44.5312 9.37344 44.5312C8.94219 44.5312 8.59219 44.1813 8.59219 43.75V34.375V28.9062H7.02969V34.375C7.02969 34.8063 6.67969 35.1562 6.24844 35.1562C5.81719 35.1562 5.46719 34.8063 5.46719 34.375V28.9062C5.46719 27.1828 6.86875 25.7812 8.59219 25.7812H12.4984H12.5C13.3141 25.7812 14.1008 25.5609 14.7984 25.1672C14.9375 25.3852 15.0938 25.5898 15.2656 25.7812H14.8422C12.257 25.7812 10.1547 27.8836 10.1547 30.4688V35.9375C10.1547 37.2297 11.2063 38.2812 12.4984 38.2812C12.7734 38.2812 13.0344 38.225 13.2797 38.1375V38.4258C13.0344 38.3375 12.7734 38.2812 12.4984 38.2812ZM18.7484 39.8438C17.4562 39.8438 16.4047 40.8953 16.4047 42.1875V45.3125C16.4047 45.7438 16.0547 46.0938 15.6234 46.0938C15.1922 46.0938 14.8422 45.7438 14.8422 45.3125V35.9375V30.4688H13.2797V35.9375C13.2797 36.3688 12.9297 36.7188 12.4984 36.7188C12.0672 36.7188 11.7172 36.3688 11.7172 35.9375V30.4688C11.7172 28.7453 13.1187 27.3438 14.8422 27.3438H18.7484H18.75C19.5633 27.3438 20.3508 27.1234 21.0484 26.7297C21.1875 26.9477 21.3438 27.1523 21.5156 27.3438H21.0938C18.5086 27.3438 16.4062 29.4461 16.4062 32.0312V37.5C16.4062 38.7922 17.4578 39.8438 18.75 39.8438C19.025 39.8438 19.2859 39.7875 19.5312 39.7V39.9883C19.2852 39.9 19.0242 39.8438 18.7484 39.8438ZM28.9062 46.875C28.9062 47.3063 28.5562 47.6562 28.125 47.6562C27.6938 47.6562 27.3438 47.3063 27.3438 46.875V43.75C27.3438 42.4578 26.2922 41.4062 25 41.4062C23.7078 41.4062 22.6562 42.4578 22.6562 43.75V46.875C22.6562 47.3063 22.3062 47.6562 21.875 47.6562C21.4438 47.6562 21.0938 47.3063 21.0938 46.875V37.5V32.0312H19.5312V37.5C19.5312 37.9313 19.1812 38.2812 18.75 38.2812C18.3188 38.2812 17.9688 37.9313 17.9688 37.5V32.0312C17.9688 30.3078 19.3703 28.9062 21.0938 28.9062H28.9062C30.6297 28.9062 32.0312 30.3078 32.0312 32.0312V37.5C32.0312 37.9313 31.6812 38.2812 31.25 38.2812C30.8188 38.2812 30.4688 37.9313 30.4688 37.5V32.0312H28.9062V37.5V46.875ZM35.1562 45.3125C35.1562 45.7438 34.8063 46.0938 34.375 46.0938C33.9438 46.0938 33.5938 45.7438 33.5938 45.3125V42.1875C33.5938 40.8953 32.5422 39.8438 31.25 39.8438C30.975 39.8438 30.7141 39.9 30.4688 39.9875V39.6992C30.7141 39.7875 30.975 39.8438 31.25 39.8438C32.5422 39.8438 33.5938 38.7922 33.5938 37.5V32.0312C33.5938 29.4461 31.4914 27.3438 28.9062 27.3438H28.4844C28.6562 27.1523 28.8125 26.9484 28.9516 26.7305C29.6484 27.1234 30.4359 27.3438 31.2484 27.3438H31.25H35.1562C36.8797 27.3438 38.2812 28.7453 38.2812 30.4688V35.9375C38.2812 36.3688 37.9313 36.7188 37.5 36.7188C37.0687 36.7188 36.7188 36.3688 36.7188 35.9375V30.4688H35.1562V35.9375V45.3125ZM44.5312 34.375C44.5312 34.8063 44.1813 35.1562 43.75 35.1562C43.3187 35.1562 42.9688 34.8063 42.9688 34.375V28.9062H41.4062V34.375V43.75C41.4062 44.1813 41.0563 44.5312 40.625 44.5312C40.1937 44.5312 39.8438 44.1813 39.8438 43.75V40.625C39.8438 39.3328 38.7922 38.2812 37.5 38.2812C37.225 38.2812 36.9641 38.3375 36.7188 38.425V38.1367C36.9641 38.225 37.225 38.2812 37.5 38.2812C38.7922 38.2812 39.8438 37.2297 39.8438 35.9375V30.4688C39.8438 27.8836 37.7414 25.7812 35.1562 25.7812H34.7328C34.9047 25.5898 35.0617 25.3852 35.2 25.1672C35.8977 25.5609 36.6852 25.7812 37.4984 25.7812H37.5H41.4062C43.1297 25.7812 44.5312 27.1828 44.5312 28.9062V34.375Z" fill="black"/>
</svg>
