<svg width="50" height="50" viewBox="0 0 50 50" fill="none" xmlns="http://www.w3.org/2000/svg">
<g clip-path="url(#clip0)">
<path d="M33.9146 19.9098C12.3141 12.528 26.8789 3.68496 34.2096 0.197559C34.3098 0.15 34.2757 0 34.1647 0H28.9353C28.1082 0 27.2909 0.191406 26.5347 0.561035C18.2301 4.62021 1.48564 14.4961 15.0132 22.7788C30.526 32.277 13.895 44.6799 5.19141 50H39.3201C43.8842 43.4855 53.3409 26.5484 33.9146 19.9098Z" fill="#665E68"/>
<path d="M5.19141 50H12.6891C21.6313 43.8361 35.3174 31.634 20.7817 22.1495C8.64912 14.2331 20.8671 4.95098 29.5072 0H28.9353C28.1082 0 27.2909 0.191406 26.5347 0.561035C18.2301 4.62021 1.48564 14.4961 15.0132 22.7788C30.526 32.277 13.895 44.6799 5.19141 50Z" fill="#554E56"/>
<path d="M21.2698 6.96672C21.0238 6.96672 20.7827 6.8467 20.6377 6.62561C20.409 6.27688 20.5062 5.80881 20.8551 5.5801C21.189 5.36115 21.399 5.24113 21.4077 5.23615C21.77 5.02961 22.2312 5.15607 22.4376 5.51848C22.6439 5.88068 22.5177 6.34153 22.1557 6.54807C22.1507 6.5509 21.9709 6.65422 21.6832 6.84289C21.5556 6.92668 21.4119 6.96662 21.2698 6.96672Z" fill="#DFEBFA"/>
<path d="M28.459 43.1577C28.2752 43.1577 28.0911 43.091 27.9456 42.9562C27.6399 42.6726 27.622 42.1947 27.9057 41.8891C28.1805 41.5929 28.4486 41.2915 28.7026 40.9933C28.9731 40.6758 29.4497 40.6376 29.767 40.9081C30.0845 41.1785 30.1227 41.6551 29.8522 41.9726C29.5844 42.2869 29.302 42.6044 29.0127 42.9162C28.864 43.0766 28.6618 43.1577 28.459 43.1577Z" fill="#DFEBFA"/>
<path d="M31.6593 38.9052C31.5316 38.9052 31.4023 38.8727 31.2837 38.8046C30.9221 38.5968 30.7976 38.1351 31.0054 37.7736C31.2051 37.4261 31.3893 37.0768 31.5525 36.7355C31.7325 36.3594 32.1834 36.2003 32.5596 36.3803C32.9358 36.5602 33.0948 37.0111 32.9149 37.3873C32.7352 37.7628 32.5333 38.1461 32.3146 38.5263C32.1749 38.7691 31.9207 38.9052 31.6593 38.9052Z" fill="#DFEBFA"/>
<path d="M33.3588 33.8976C33.3388 33.8976 33.3186 33.8968 33.2983 33.8952C32.8825 33.8622 32.5722 33.4985 32.6052 33.0828C32.6214 32.8792 32.6295 32.6747 32.6295 32.4749C32.6296 32.305 32.6236 32.1341 32.6119 31.9667C32.5827 31.5507 32.8964 31.1898 33.3123 31.1606C33.7274 31.1311 34.0892 31.445 34.1184 31.861C34.1325 32.0635 34.1398 32.2701 34.1397 32.4751C34.1397 32.7143 34.1299 32.9591 34.1106 33.2021C34.0793 33.5975 33.7487 33.8976 33.3588 33.8976Z" fill="#DFEBFA"/>
<path d="M32.0397 28.8402C31.7948 28.8402 31.5544 28.7212 31.4091 28.5016C31.2071 28.196 30.9766 27.8918 30.724 27.5974C30.4525 27.2809 30.4889 26.8042 30.8054 26.5326C31.1219 26.2611 31.5986 26.2975 31.8702 26.6141C32.1635 26.956 32.4322 27.3108 32.6688 27.6685C32.8988 28.0163 32.8034 28.4848 32.4555 28.7149C32.3273 28.7997 32.1827 28.8402 32.0397 28.8402Z" fill="#DFEBFA"/>
<path d="M28.1802 25.2206C28.0399 25.2206 27.8981 25.1816 27.7717 25.1C27.4501 24.8926 27.1085 24.6865 26.7564 24.4875C26.3933 24.2823 26.2655 23.8216 26.4707 23.4586C26.6759 23.0955 27.1366 22.9677 27.4996 23.1728C27.877 23.3862 28.2439 23.6076 28.59 23.8307C28.9405 24.0568 29.0414 24.5241 28.8154 24.8746C28.6711 25.0985 28.4281 25.2206 28.1802 25.2206Z" fill="#DFEBFA"/>
<path d="M23.4527 22.7713C23.3378 22.7713 23.2213 22.745 23.1119 22.6895C22.7292 22.4956 22.3551 22.2971 22 22.0996C21.6356 21.8969 21.5044 21.4371 21.7072 21.0727C21.9099 20.7081 22.3696 20.5769 22.7341 20.7798C23.0724 20.968 23.4292 21.1572 23.7947 21.3425C24.1666 21.5311 24.3154 21.9854 24.1268 22.3574C23.9938 22.6199 23.7282 22.7713 23.4527 22.7713Z" fill="#DFEBFA"/>
<path d="M18.9782 19.9005C18.8049 19.9005 18.6309 19.8412 18.4887 19.7201C18.1468 19.4287 17.827 19.1297 17.5382 18.8317C17.248 18.5322 17.2556 18.0542 17.5552 17.764C17.8548 17.4738 18.3328 17.4815 18.6229 17.781C18.8784 18.0447 19.1628 18.3105 19.4683 18.5709C19.7857 18.8414 19.8238 19.3179 19.5532 19.6353C19.4039 19.8103 19.1916 19.9005 18.9782 19.9005Z" fill="#DFEBFA"/>
<path d="M16.0548 15.5621C15.7054 15.5621 15.3918 15.3182 15.3168 14.9627C15.2308 14.5552 15.1873 14.1391 15.1873 13.7259C15.1872 13.6725 15.1879 13.6186 15.1894 13.5647C15.2008 13.1478 15.5492 12.8209 15.9649 12.8305C16.3818 12.842 16.7105 13.1891 16.6991 13.606C16.698 13.6457 16.6974 13.6853 16.6975 13.7252C16.6975 14.0345 16.7301 14.3458 16.7945 14.6509C16.8805 15.059 16.6196 15.4595 16.2115 15.5456C16.1588 15.5568 16.1064 15.5621 16.0548 15.5621Z" fill="#DFEBFA"/>
<path d="M17.3702 10.5626C17.2167 10.5626 17.0618 10.5159 16.928 10.419C16.5903 10.1745 16.5147 9.70232 16.7593 9.36462C17.0058 9.02419 17.2839 8.68191 17.586 8.34734C17.8653 8.03787 18.3427 8.01316 18.6525 8.29275C18.962 8.57214 18.9864 9.04958 18.7071 9.35925C18.4412 9.65378 18.1975 9.95359 17.9825 10.2504C17.8349 10.4543 17.6042 10.5626 17.3702 10.5626Z" fill="#DFEBFA"/>
<path d="M25.0005 46.366C24.7724 46.366 24.547 46.2631 24.3985 46.0673C24.1464 45.7351 24.2114 45.2614 24.5436 45.0093C24.5449 45.0082 24.711 44.8818 24.9898 44.6513C25.3112 44.3855 25.7872 44.4306 26.0529 44.7519C26.3187 45.0733 26.2736 45.5492 25.9523 45.8149C25.6463 46.0681 25.4641 46.2065 25.4565 46.2123C25.3199 46.3159 25.1596 46.366 25.0005 46.366Z" fill="#DFEBFA"/>
<path d="M35.6428 18.0993C15.0579 11.7374 26.9349 4.49287 34.5563 0.76123C34.9125 0.586914 34.7991 0 34.4096 0H34.1264C26.9569 3.34004 11.3905 12.3843 33.4117 19.9098C52.8378 26.5484 43.3811 43.4855 38.8171 50H42.6851C43.6535 50 44.5432 49.4128 45.0006 48.4708C49.3857 39.4418 53.4782 23.6115 35.6428 18.0993Z" fill="#FFD301"/>
<path d="M15.2143 22.7786C5.21305 16.655 11.5578 9.66045 19.0061 4.78955C10.6735 9.4623 1.11715 17.1423 12.319 24.0009C25.4392 32.0342 11.6763 42.1451 1.64938 48.2915C0.904458 48.7482 1.19938 49.9998 2.05163 49.9998H5.39254C14.0963 44.6797 30.7272 32.2768 15.2143 22.7786Z" fill="#FFC20C"/>
</g>
<defs>
<clipPath id="clip0">
<rect width="50" height="50" fill="white"/>
</clipPath>
</defs>
</svg>
