<svg width="50" height="50" viewBox="0 0 50 50" fill="none" xmlns="http://www.w3.org/2000/svg">
<g clip-path="url(#clip0)">
<path d="M25.7812 9.21875C25.7812 9.60938 25.3906 10 25 10C24.6094 10 24.2188 9.60938 24.2188 9.21875V0.78125C24.2188 0.3125 24.6094 0 25 0C25.3906 0 25.7812 0.3125 25.7812 0.78125V9.21875Z" fill="#B2C1C0"/>
<path d="M3.125 21.875H46.875V46.875H3.125V21.875Z" fill="#E5DEC1"/>
<path d="M47.2655 15.4687C46.8749 14.6875 45.8593 14.0625 44.9218 14.0625H4.99992C4.14054 14.0625 3.04679 14.6875 2.65617 15.4687L0.0780445 20.4688C-0.312581 21.25 0.0780445 21.875 0.93742 21.875H48.9062C49.7655 21.875 50.1562 21.25 49.7655 20.4688L47.2655 15.4687Z" fill="#D33B23"/>
<path d="M11.7188 35.1562C11.7188 35.5469 11.4062 35.9375 10.9375 35.9375H6.25C5.78125 35.9375 5.46875 35.5469 5.46875 35.1562V32.0312C5.46875 31.6406 5.78125 31.25 6.25 31.25H10.9375C11.4062 31.25 11.7188 31.6406 11.7188 32.0312V35.1562Z" fill="#D6EEF0"/>
<path d="M11.7188 27.3438C11.7188 27.7344 11.4062 28.125 10.9375 28.125H6.25C5.78125 28.125 5.46875 27.7344 5.46875 27.3438V24.2188C5.46875 23.8281 5.78125 23.4375 6.25 23.4375H10.9375C11.4062 23.4375 11.7188 23.8281 11.7188 24.2188V27.3438Z" fill="#D6EEF0"/>
<path d="M10.9375 28.5156H6.25C5.625 28.5156 5.07812 27.9688 5.07812 27.3438V24.2188C5.07812 23.5938 5.625 23.0469 6.25 23.0469H10.9375C11.5625 23.0469 12.1094 23.5938 12.1094 24.2188V27.3438C12.1094 27.9688 11.5625 28.5156 10.9375 28.5156ZM6.25 23.8281C6.01562 23.8281 5.85938 23.9844 5.85938 24.2188V27.3438C5.85938 27.5781 6.01562 27.7344 6.25 27.7344H10.9375C11.1719 27.7344 11.3281 27.5781 11.3281 27.3438V24.2188C11.3281 23.9844 11.1719 23.8281 10.9375 23.8281H6.25Z" fill="#DBB471"/>
<path d="M8.20312 23.4375H8.98438V28.125H8.20312V23.4375Z" fill="#DBB471"/>
<path d="M10.9375 36.7188H6.25C5.625 36.7188 5.07812 36.1719 5.07812 35.5469V32.4219C5.07812 31.7969 5.625 31.25 6.25 31.25H10.9375C11.5625 31.25 12.1094 31.7969 12.1094 32.4219V35.5469C12.1094 36.1719 11.5625 36.7188 10.9375 36.7188ZM6.25 32.0312C6.01562 32.0312 5.85938 32.1875 5.85938 32.4219V35.5469C5.85938 35.7812 6.01562 35.9375 6.25 35.9375H10.9375C11.1719 35.9375 11.3281 35.7812 11.3281 35.5469V32.4219C11.3281 32.1875 11.1719 32.0312 10.9375 32.0312H6.25Z" fill="#DBB471"/>
<path d="M8.20312 31.6406H8.98438V36.3281H8.20312V31.6406Z" fill="#DBB471"/>
<path d="M11.7188 42.9688C11.7188 43.3594 11.4062 43.75 10.9375 43.75H6.25C5.78125 43.75 5.46875 43.3594 5.46875 42.9688V39.8438C5.46875 39.4531 5.78125 39.0625 6.25 39.0625H10.9375C11.4062 39.0625 11.7188 39.4531 11.7188 39.8438V42.9688Z" fill="#D6EEF0"/>
<path d="M10.9375 44.5312H6.25C5.625 44.5312 5.07812 43.9844 5.07812 43.3594V40.2344C5.07812 39.6094 5.625 39.0625 6.25 39.0625H10.9375C11.5625 39.0625 12.1094 39.6094 12.1094 40.2344V43.3594C12.1094 43.9844 11.5625 44.5312 10.9375 44.5312ZM6.25 39.8438C6.01562 39.8438 5.85938 40 5.85938 40.2344V43.3594C5.85938 43.5938 6.01562 43.75 6.25 43.75H10.9375C11.1719 43.75 11.3281 43.5938 11.3281 43.3594V40.2344C11.3281 40 11.1719 39.8438 10.9375 39.8438H6.25Z" fill="#DBB471"/>
<path d="M8.20312 39.4531H8.98438V44.1406H8.20312V39.4531Z" fill="#DBB471"/>
<path d="M44.5312 35.1562C44.5312 35.5469 44.1406 35.9375 43.75 35.9375H39.0625C38.6719 35.9375 38.2812 35.5469 38.2812 35.1562V32.0312C38.2812 31.6406 38.6719 31.25 39.0625 31.25H43.75C44.1406 31.25 44.5312 31.6406 44.5312 32.0312V35.1562Z" fill="#D6EEF0"/>
<path d="M44.5312 27.3438C44.5312 27.7344 44.1406 28.125 43.75 28.125H39.0625C38.6719 28.125 38.2812 27.7344 38.2812 27.3438V24.2188C38.2812 23.8281 38.6719 23.4375 39.0625 23.4375H43.75C44.1406 23.4375 44.5312 23.8281 44.5312 24.2188V27.3438Z" fill="#D6EEF0"/>
<path d="M43.75 28.5156H39.0625C38.4375 28.5156 37.8906 27.9688 37.8906 27.3438V24.2188C37.8906 23.5938 38.4375 23.0469 39.0625 23.0469H43.75C44.375 23.0469 44.9219 23.5938 44.9219 24.2188V27.3438C44.9219 27.9688 44.375 28.5156 43.75 28.5156ZM39.0625 23.8281C38.8281 23.8281 38.6719 23.9844 38.6719 24.2188V27.3438C38.6719 27.5781 38.8281 27.7344 39.0625 27.7344H43.75C43.9844 27.7344 44.1406 27.5781 44.1406 27.3438V24.2188C44.1406 23.9844 43.9844 23.8281 43.75 23.8281H39.0625Z" fill="#DBB471"/>
<path d="M41.0156 23.4375H41.7969V28.125H41.0156V23.4375Z" fill="#DBB471"/>
<path d="M43.75 36.7188H39.0625C38.4375 36.7188 37.8906 36.1719 37.8906 35.5469V32.4219C37.8906 31.7969 38.4375 31.25 39.0625 31.25H43.75C44.375 31.25 44.9219 31.7969 44.9219 32.4219V35.5469C44.9219 36.1719 44.375 36.7188 43.75 36.7188ZM39.0625 32.0312C38.8281 32.0312 38.6719 32.1875 38.6719 32.4219V35.5469C38.6719 35.7812 38.8281 35.9375 39.0625 35.9375H43.75C43.9844 35.9375 44.1406 35.7812 44.1406 35.5469V32.4219C44.1406 32.1875 43.9844 32.0312 43.75 32.0312H39.0625Z" fill="#DBB471"/>
<path d="M41.0156 31.6406H41.7969V36.3281H41.0156V31.6406Z" fill="#DBB471"/>
<path d="M44.5312 42.9688C44.5312 43.3594 44.1406 43.75 43.75 43.75H39.0625C38.6719 43.75 38.2812 43.3594 38.2812 42.9688V39.8438C38.2812 39.4531 38.6719 39.0625 39.0625 39.0625H43.75C44.1406 39.0625 44.5312 39.4531 44.5312 39.8438V42.9688Z" fill="#D6EEF0"/>
<path d="M43.75 44.5312H39.0625C38.4375 44.5312 37.8906 43.9844 37.8906 43.3594V40.2344C37.8906 39.6094 38.4375 39.0625 39.0625 39.0625H43.75C44.375 39.0625 44.9219 39.6094 44.9219 40.2344V43.3594C44.9219 43.9844 44.375 44.5312 43.75 44.5312ZM39.0625 39.8438C38.8281 39.8438 38.6719 40 38.6719 40.2344V43.3594C38.6719 43.5938 38.8281 43.75 39.0625 43.75H43.75C43.9844 43.75 44.1406 43.5938 44.1406 43.3594V40.2344C44.1406 40 43.9844 39.8438 43.75 39.8438H39.0625Z" fill="#DBB471"/>
<path d="M41.0156 39.4531H41.7969V44.1406H41.0156V39.4531Z" fill="#DBB471"/>
<path d="M25.6248 9.0625C25.3123 8.82812 24.7654 8.82812 24.3748 9.0625L9.21853 21.4062C8.90603 21.6406 8.90603 21.875 9.37478 21.875H40.6248C41.0154 21.875 41.1716 21.6406 40.781 21.4062L25.6248 9.0625Z" fill="#F15744"/>
<path d="M37.6564 21.4062L25.6251 11.4063C25.3126 11.0938 24.7657 11.0938 24.4532 11.4063L12.3439 21.4062C11.9532 21.6406 12.0314 21.875 12.5001 21.875H14.0626V46.875H35.9376V21.875H37.5001C37.8907 21.875 38.047 21.6406 37.6564 21.4062Z" fill="#F9F3D9"/>
<path d="M18.75 35.1562H31.25V46.875H18.75V35.1562Z" fill="#E5DEC1"/>
<path d="M20.3125 35.1562H29.6875V46.875H20.3125V35.1562Z" fill="#42ADE2"/>
<path d="M15.7813 29.6875C16.0156 29.7656 16.3281 29.8438 16.6406 29.8438C17.0312 29.8438 17.1875 29.6875 17.1875 29.5312C17.1875 29.375 17.0312 29.2187 16.6406 29.1406C16.0937 28.9844 15.7031 28.6719 15.7031 28.2813C15.7031 27.7344 16.1719 27.3438 17.0312 27.3438C17.4219 27.3438 17.7344 27.4219 17.8906 27.5L17.7344 28.0469C17.5781 27.9688 17.3437 27.8906 17.0312 27.8906C16.7187 27.8906 16.5625 28.0469 16.5625 28.2031C16.5625 28.3594 16.7187 28.5156 17.1875 28.5937C17.8125 28.8281 18.0469 29.0625 18.0469 29.5312C18.0469 30 17.5781 30.4688 16.6406 30.4688C16.25 30.4688 15.8594 30.3906 15.7031 30.3125L15.7813 29.6875Z" fill="#89664C"/>
<path d="M21.0156 30.3125C20.8594 30.3906 20.5469 30.4688 20.1562 30.4688C18.9844 30.4688 18.3594 29.8437 18.3594 28.9844C18.3594 27.9687 19.2187 27.3438 20.2344 27.3438C20.625 27.3438 20.9375 27.4219 21.0938 27.5L20.9375 28.0469C20.7812 27.9688 20.5469 27.9687 20.3125 27.9687C19.6875 27.9687 19.2188 28.2812 19.2188 28.9844C19.2188 29.6094 19.6094 30 20.3125 30C20.5469 30 20.7812 29.9219 20.9375 29.9219L21.0156 30.3125Z" fill="#89664C"/>
<path d="M22.2656 27.4216V28.5935H23.5156V27.4216H24.2969V30.4685H23.5156V29.2185H22.2656V30.4685H21.4844V27.4216H22.2656Z" fill="#89664C"/>
<path d="M28.125 28.9062C28.125 29.9219 27.4219 30.4688 26.4844 30.4688C25.4688 30.4688 24.8438 29.7656 24.8438 28.9062C24.8438 27.9687 25.4688 27.3438 26.4844 27.3438C27.5 27.3438 28.125 28.0469 28.125 28.9062ZM25.625 28.9062C25.625 29.5312 25.9375 29.9219 26.4844 29.9219C27.0313 29.9219 27.2656 29.4531 27.2656 28.9062C27.2656 28.3594 26.9531 27.8906 26.4062 27.8906C25.9375 27.8906 25.625 28.3594 25.625 28.9062Z" fill="#89664C"/>
<path d="M31.7187 28.9062C31.7187 29.9219 31.0156 30.4688 30.0781 30.4688C29.0625 30.4688 28.4375 29.7656 28.4375 28.9062C28.4375 27.9687 29.0625 27.3438 30.0781 27.3438C31.1719 27.3438 31.7187 28.0469 31.7187 28.9062ZM29.2969 28.9062C29.2969 29.5312 29.6094 29.9219 30.1562 29.9219C30.7031 29.9219 30.9375 29.4531 30.9375 28.9062C30.9375 28.3594 30.625 27.8906 30.0781 27.8906C29.6094 27.8906 29.2969 28.3594 29.2969 28.9062Z" fill="#89664C"/>
<path d="M32.2656 27.4216H33.0469V29.8435H34.375V30.3904H32.2656V27.4216Z" fill="#89664C"/>
<path d="M25 25.7812C28.0203 25.7812 30.4688 23.3328 30.4688 20.3125C30.4688 17.2922 28.0203 14.8438 25 14.8438C21.9797 14.8438 19.5312 17.2922 19.5312 20.3125C19.5312 23.3328 21.9797 25.7812 25 25.7812Z" fill="#DBB471"/>
<path d="M25 24.2188C27.1574 24.2188 28.9062 22.4699 28.9062 20.3125C28.9062 18.1551 27.1574 16.4062 25 16.4062C22.8426 16.4062 21.0938 18.1551 21.0938 20.3125C21.0938 22.4699 22.8426 24.2188 25 24.2188Z" fill="white"/>
<path d="M24.6094 35.1562H25.3906V46.875H24.6094V35.1562Z" fill="#E5DEC1"/>
<path d="M25 17.1875C24.6094 17.1875 24.2188 17.5781 24.2188 17.9688V21.0938C24.2188 21.4844 24.6094 21.875 25 21.875C25.3906 21.875 25.7812 21.4844 25.7812 21.0938V17.9688C25.7812 17.5781 25.3906 17.1875 25 17.1875Z" fill="#B2C1C0"/>
<path d="M25 20.3125H23.4375C23.0469 20.3125 22.6562 20.7031 22.6562 21.0938C22.6562 21.4844 23.0469 21.875 23.4375 21.875H25C25.3906 21.875 25.7812 21.4844 25.7812 21.0938C25.7812 20.7031 25.3906 20.3125 25 20.3125Z" fill="#F15744"/>
<path d="M25.7812 1.5625V7.34375C28.9062 9.84375 32.0312 1.95312 35.1562 4.45312C32.0312 0 28.9062 5.9375 25.7812 1.5625Z" fill="#B4D7EE"/>
<path d="M25.7031 31.4844C25.3125 31.1719 24.6094 31.1719 24.2188 31.4844C22.5781 32.6562 17.1875 35.9375 17.1875 35.9375V37.5H32.8125V35.9375C32.8125 35.9375 27.4219 32.6562 25.7031 31.4844Z" fill="#F15744"/>
<path d="M49.2188 46.875H0.78125C0.3125 46.875 0 47.2656 0 47.6562V49.2188C0 49.6094 0.3125 50 0.78125 50H49.2188C49.6094 50 50 49.6094 50 49.2188V47.6562C50 47.2656 49.6094 46.875 49.2188 46.875Z" fill="#666666"/>
<path d="M15.625 48.4375H34.375V50H15.625V48.4375Z" fill="#E8E8E8"/>
<path d="M17.1875 46.875H32.8125V48.4375H17.1875V46.875Z" fill="#D0D0D0"/>
<path d="M22.7344 41.7969H23.8281V42.3438H22.7344V41.7969Z" fill="#666666"/>
<path d="M26.1719 41.7969H27.2656V42.3438H26.1719V41.7969Z" fill="#666666"/>
</g>
<defs>
<clipPath id="clip0">
<rect width="50" height="50" fill="white"/>
</clipPath>
</defs>
</svg>
