<svg width="50" height="50" viewBox="0 0 50 50" fill="none" xmlns="http://www.w3.org/2000/svg">
<g clip-path="url(#clip0)">
<path d="M43.7418 6.66132C38.234 6.66132 32.8944 4.76358 28.6218 1.28769C26.5123 -0.42858 23.4878 -0.42858 21.3783 1.28769C17.1059 4.76367 11.7662 6.66132 6.2584 6.66132C4.5385 6.66132 3.14429 8.05554 3.14429 9.77544V18.1217C3.14429 28.8287 7.96556 38.9665 16.2711 45.7237L18.8346 47.8092C22.4259 50.7309 27.5747 50.7309 31.166 47.8092L33.7294 45.7237C42.0349 38.9666 46.8562 28.8283 46.8562 18.1213C46.8562 14.917 46.8562 11.9057 46.8562 9.77475C46.856 8.05485 45.4617 6.66132 43.7418 6.66132Z" fill="url(#paint0_linear)"/>
<path d="M25.0001 47.2522C24.3997 47.2522 23.8124 47.0435 23.3466 46.6646L18.4438 42.6757C14.8627 39.7622 11.9217 36.0185 9.93899 31.8494C7.95624 27.6802 6.9082 23.0363 6.9082 18.4198V11.7964C6.9082 10.9951 7.5633 10.3138 8.3635 10.2715C13.8201 9.98299 19.0953 7.95956 23.3466 4.50073C23.8125 4.12171 24.3997 3.91309 25.0001 3.91309C25.6006 3.91309 26.1877 4.12171 26.6535 4.50063C30.9051 7.95956 36.1804 9.98299 41.6369 10.2715C42.4369 10.3138 43.0919 10.995 43.0919 11.7962V18.4194C43.0919 23.036 42.0439 27.6799 40.0611 31.8492C38.0784 36.0185 35.1375 39.7622 31.5564 42.6757L26.6535 46.6646C26.1877 47.0436 25.6006 47.2522 25.0001 47.2522Z" fill="url(#paint1_linear)"/>
<path d="M24.9999 45.4237C24.4501 45.4237 23.9125 45.2326 23.486 44.8856L18.9969 41.2335C15.718 38.5658 13.0252 35.138 11.2098 31.3207C9.39442 27.5035 8.43481 23.2514 8.43481 19.0243V12.9599C8.43481 12.2263 9.03462 11.6025 9.76727 11.5637C14.7633 11.2994 19.5934 9.4468 23.486 6.27984C23.9126 5.93288 24.4502 5.7417 24.9999 5.7417C25.5497 5.7417 26.0874 5.93278 26.5137 6.27974C30.4065 9.4468 35.2367 11.2994 40.2328 11.5637C40.9653 11.6024 41.565 12.2261 41.565 12.9596V19.0239C41.565 23.2509 40.6054 27.503 38.79 31.3204C36.9746 35.1379 34.2819 38.5657 31.003 41.2334L26.5137 44.8855C26.0874 45.2326 25.5497 45.4237 24.9999 45.4237Z" fill="url(#paint2_linear)"/>
<path d="M46.8559 9.77431C46.8559 8.05441 45.4617 6.66088 43.7418 6.66088C38.2339 6.66088 32.8943 4.76314 28.6218 1.28725C27.567 0.429118 26.2835 0 25 0V50C27.185 50 29.37 49.2696 31.1657 47.8087L33.7291 45.7232C42.0346 38.9662 46.8559 28.8278 46.856 18.1209C46.8559 14.9165 46.8559 11.9052 46.8559 9.77431Z" fill="url(#paint3_linear)"/>
<path d="M41.3164 14.55C40.3369 13.5706 38.7489 13.7714 37.7694 14.7508L25.5489 26.9712C25.4298 27.0903 25.0931 27.3161 25.0001 27.3161C24.9072 27.3161 24.7713 27.2911 24.6521 27.1719L19.9678 22.4876C18.9883 21.5082 17.5006 21.5082 16.5211 22.4876C15.5416 23.4671 15.4412 24.8543 16.4207 25.8339L35.1184 44.5315C42.0918 38.2361 46.2931 29.4337 46.8031 20.0556L41.3164 14.55Z" fill="url(#paint4_linear)"/>
<path d="M33.7292 45.723C39.6574 40.9001 43.8098 34.3543 45.7017 27.1089L34.3992 15.8065C32.0404 13.3152 28.702 11.9614 25.0002 11.9614C17.9474 11.9613 12.2589 17.6499 12.259 24.7027C12.259 28.4045 13.6128 31.7428 16.1042 34.1016L29.6884 47.6857C30.1033 48.1007 30.7651 48.1347 31.2204 47.7643L33.7292 45.723Z" fill="url(#paint5_linear)"/>
<path d="M25 37.6445C32.1476 37.6445 37.9418 31.8502 37.9418 24.7026C37.9418 17.555 32.1476 11.7607 25 11.7607C17.8524 11.7607 12.0581 17.555 12.0581 24.7026C12.0581 31.8502 17.8524 37.6445 25 37.6445Z" fill="url(#paint6_linear)"/>
<path d="M35.451 17.0691L25.5489 26.9711C25.4298 27.0903 25.0931 27.316 25.0002 27.316C24.9072 27.316 24.7713 27.291 24.6521 27.1718L19.9678 22.4875C18.9883 21.5081 17.5006 21.5081 16.5211 22.4875C15.5416 23.467 15.4412 24.8543 16.4207 25.8338L27.9041 37.3171C33.6534 35.999 37.942 30.8517 37.942 24.7025C37.942 21.8476 37.0168 19.2092 35.451 17.0691Z" fill="url(#paint7_linear)"/>
<path d="M25.0001 32.1316C23.5287 32.1316 22.1454 31.5585 21.105 30.5181L16.4207 25.8339C15.4412 24.8544 15.4412 23.2664 16.4207 22.2869C17.4001 21.3074 18.9881 21.3074 19.9677 22.2869L24.652 26.9712C24.7713 27.0904 24.9071 27.1154 25.0001 27.1154C25.093 27.1154 25.2289 27.0904 25.3481 26.9712L37.7693 14.55C38.7488 13.5706 40.3368 13.5706 41.3164 14.55C42.2959 15.5295 42.2959 17.1175 41.3164 18.0971L28.8952 30.5181C27.8548 31.5585 26.4715 32.1316 25.0001 32.1316Z" fill="url(#paint8_linear)"/>
</g>
<defs>
<linearGradient id="paint0_linear" x1="6.68801" y1="2.36093" x2="44.3808" y2="40.0537" gradientUnits="userSpaceOnUse">
<stop stop-color="#B5DBFF"/>
<stop offset="1" stop-color="#76E2F8"/>
</linearGradient>
<linearGradient id="paint1_linear" x1="49.5952" y1="45.8676" x2="16.245" y2="12.5173" gradientUnits="userSpaceOnUse">
<stop stop-color="#B5DBFF" stop-opacity="0"/>
<stop offset="0.2428" stop-color="#93CEF6" stop-opacity="0.243"/>
<stop offset="0.5763" stop-color="#6ABFEC" stop-opacity="0.576"/>
<stop offset="0.8403" stop-color="#51B5E5" stop-opacity="0.84"/>
<stop offset="1" stop-color="#48B2E3"/>
</linearGradient>
<linearGradient id="paint2_linear" x1="18.5518" y1="15.1881" x2="33.2018" y2="29.8381" gradientUnits="userSpaceOnUse">
<stop stop-color="#EDF5FF"/>
<stop offset="1" stop-color="#D5E8FE"/>
</linearGradient>
<linearGradient id="paint3_linear" x1="29.5426" y1="25.8423" x2="-0.554814" y2="11.3956" gradientUnits="userSpaceOnUse">
<stop stop-color="#B5DBFF" stop-opacity="0"/>
<stop offset="0.1734" stop-color="#8FC5E9" stop-opacity="0.173"/>
<stop offset="0.4541" stop-color="#56A4C8" stop-opacity="0.454"/>
<stop offset="0.6955" stop-color="#2D8DB1" stop-opacity="0.696"/>
<stop offset="0.8853" stop-color="#147EA2" stop-opacity="0.885"/>
<stop offset="1" stop-color="#0B799D"/>
</linearGradient>
<linearGradient id="paint4_linear" x1="41.0562" y1="31.6846" x2="30.7562" y2="23.8592" gradientUnits="userSpaceOnUse">
<stop stop-color="#B5DBFF" stop-opacity="0"/>
<stop offset="0.1734" stop-color="#8FC5E9" stop-opacity="0.173"/>
<stop offset="0.4541" stop-color="#56A4C8" stop-opacity="0.454"/>
<stop offset="0.6955" stop-color="#2D8DB1" stop-opacity="0.696"/>
<stop offset="0.8853" stop-color="#147EA2" stop-opacity="0.885"/>
<stop offset="1" stop-color="#0B799D"/>
</linearGradient>
<linearGradient id="paint5_linear" x1="39.3223" y1="39.0247" x2="22.1557" y2="21.8581" gradientUnits="userSpaceOnUse">
<stop stop-color="#B5DBFF" stop-opacity="0"/>
<stop offset="0.1734" stop-color="#8FC5E9" stop-opacity="0.173"/>
<stop offset="0.4541" stop-color="#56A4C8" stop-opacity="0.454"/>
<stop offset="0.6955" stop-color="#2D8DB1" stop-opacity="0.696"/>
<stop offset="0.8853" stop-color="#147EA2" stop-opacity="0.885"/>
<stop offset="1" stop-color="#0B799D"/>
</linearGradient>
<linearGradient id="paint6_linear" x1="18.9805" y1="18.6832" x2="31.4547" y2="31.1573" gradientUnits="userSpaceOnUse">
<stop stop-color="#B9DD39"/>
<stop offset="1" stop-color="#90CC1C"/>
</linearGradient>
<linearGradient id="paint7_linear" x1="36.7635" y1="32.2791" x2="32.125" y2="27.6405" gradientUnits="userSpaceOnUse">
<stop stop-color="#66BB00" stop-opacity="0"/>
<stop offset="1" stop-color="#66BB00"/>
</linearGradient>
<linearGradient id="paint8_linear" x1="23.8611" y1="15.1844" x2="36.781" y2="28.1043" gradientUnits="userSpaceOnUse">
<stop stop-color="#0B799D"/>
<stop offset="1" stop-color="#07485E"/>
</linearGradient>
<clipPath id="clip0">
<rect width="50" height="50" fill="white"/>
</clipPath>
</defs>
</svg>
