<svg width="50" height="50" viewBox="0 0 50 50" fill="none" xmlns="http://www.w3.org/2000/svg">
<g clip-path="url(#clip0)">
<path d="M15.2256 14.8435V15.8466C15.226 16.4604 15.2914 17.0724 15.4209 17.6724L16.0104 20.3642C16.3182 21.7748 16.5248 23.2802 17.0689 24.622C17.712 26.1976 18.8098 27.5459 20.2223 28.4951C21.6348 29.4442 23.298 29.951 24.9998 29.951C26.7016 29.951 28.3648 29.4442 29.7773 28.4951C31.1898 27.5459 32.2876 26.1976 32.9307 24.622C33.4748 23.2794 33.6814 21.774 33.9889 20.3642L34.5787 17.6724C34.7082 17.0724 34.7736 16.4604 34.774 15.8466V14.8435H15.2256Z" fill="#F0D0B4"/>
<path d="M15.4222 17.6725C15.2911 17.0723 15.2249 16.4598 15.225 15.8455V15.335C15.1051 15.3177 14.9843 15.3086 14.8632 15.3076C14.4634 15.3066 14.0685 15.3958 13.7078 15.5685C13.3472 15.7412 13.0301 15.993 12.7802 16.3051C12.5302 16.6172 12.3539 16.9817 12.2643 17.3714C12.1746 17.761 12.174 18.1659 12.2624 18.5559C12.3508 18.9459 12.5259 19.3109 12.7749 19.6238C13.0238 19.9367 13.3401 20.1895 13.7001 20.3634C14.0602 20.5372 14.4549 20.6276 14.8547 20.6279C15.2546 20.6282 15.6494 20.5384 16.0097 20.365L15.4222 17.6725Z" fill="#DDB79B"/>
<path d="M25.8622 20.8592H25.0974C24.9044 20.8592 24.7137 20.8175 24.5384 20.737C24.363 20.6565 24.2071 20.5391 24.0813 20.3927C23.9556 20.2464 23.8629 20.0747 23.8096 19.8892C23.7564 19.7037 23.7438 19.509 23.7728 19.3182L24.0497 17.4873C24.0632 17.3986 24.0939 17.3133 24.1403 17.2364C24.1867 17.1596 24.2478 17.0926 24.3201 17.0393C24.3923 16.9861 24.4744 16.9476 24.5616 16.926C24.6487 16.9044 24.7393 16.9003 24.828 16.9137C24.9168 16.9271 25.0021 16.9579 25.0789 17.0043C25.1558 17.0507 25.2228 17.1118 25.2761 17.1841C25.3293 17.2563 25.3678 17.3384 25.3894 17.4256C25.4109 17.5127 25.4151 17.6033 25.4017 17.692L25.1282 19.492H25.8614C26.0427 19.492 26.2166 19.564 26.3448 19.6922C26.473 19.8204 26.545 19.9943 26.545 20.1756C26.545 20.3569 26.473 20.5308 26.3448 20.659C26.2166 20.7872 26.0427 20.8592 25.8614 20.8592H25.8622Z" fill="#424242"/>
<path d="M20.7033 14.1599C20.3814 14.1598 20.0666 14.2552 19.7989 14.434C19.5312 14.6129 19.3225 14.867 19.1992 15.1645C19.076 15.4619 19.0437 15.7892 19.1064 16.105C19.1692 16.4207 19.3242 16.7108 19.5518 16.9385C19.7794 17.1662 20.0695 17.3212 20.3852 17.3841C20.701 17.4469 21.0283 17.4147 21.3257 17.2915C21.6232 17.1683 21.8774 16.9597 22.0563 16.692C22.2352 16.4243 22.3307 16.1096 22.3307 15.7876C22.3301 15.3562 22.1585 14.9425 21.8535 14.6374C21.5484 14.3322 21.1348 14.1605 20.7033 14.1599Z" fill="#424242"/>
<path d="M29.2972 14.1599C28.9752 14.1599 28.6605 14.2554 28.3928 14.4342C28.1252 14.6131 27.9165 14.8673 27.7933 15.1647C27.6701 15.4622 27.6379 15.7895 27.7007 16.1052C27.7635 16.4209 27.9185 16.711 28.1462 16.9386C28.3738 17.1663 28.6639 17.3213 28.9796 17.3841C29.2954 17.4469 29.6226 17.4147 29.9201 17.2915C30.2175 17.1683 30.4717 16.9596 30.6506 16.692C30.8294 16.4243 30.9249 16.1096 30.9249 15.7876C30.9245 15.3561 30.7529 14.9423 30.4477 14.6371C30.1425 14.332 29.7287 14.1603 29.2972 14.1599Z" fill="#424242"/>
<path d="M24.9512 24.8042C24.365 24.8263 23.7811 24.7208 23.2396 24.4952C22.6982 24.2695 22.2122 23.929 21.8152 23.4972C21.7072 23.3566 21.6579 23.1796 21.678 23.0034C21.698 22.8272 21.7857 22.6657 21.9226 22.5529C22.0594 22.4402 22.2348 22.385 22.4115 22.3991C22.5883 22.4132 22.7527 22.4955 22.8699 22.6285C23.1402 22.9023 23.4654 23.116 23.8241 23.2553C24.1828 23.3947 24.5669 23.4566 24.9512 23.4371C25.3353 23.4565 25.7191 23.3945 26.0776 23.2553C26.4361 23.116 26.7611 22.9025 27.0313 22.6289C27.0874 22.5568 27.1574 22.4967 27.2372 22.4521C27.3169 22.4075 27.4048 22.3794 27.4956 22.3694C27.5864 22.3593 27.6783 22.3676 27.7659 22.3937C27.8534 22.4198 27.9349 22.4632 28.0054 22.5213C28.0759 22.5794 28.134 22.651 28.1764 22.732C28.2187 22.8129 28.2444 22.9016 28.2519 22.9926C28.2594 23.0837 28.2486 23.1753 28.2201 23.2621C28.1916 23.3489 28.146 23.4291 28.0859 23.498C27.6891 23.9296 27.2033 24.2699 26.662 24.4954C26.1208 24.721 25.5371 24.8263 24.9512 24.8042Z" fill="#424242"/>
<path d="M35.0392 15.3076C34.9506 15.3094 34.8621 15.3162 34.7743 15.3279V15.8467C34.7739 16.4605 34.7085 17.0725 34.579 17.6725L33.9892 20.3643L33.981 20.4033C34.3142 20.5511 34.6746 20.628 35.0392 20.6291C35.739 20.6206 36.4074 20.3366 36.8993 19.8387C37.3912 19.3408 37.6671 18.6691 37.6671 17.9691C37.6671 17.2692 37.3912 16.5975 36.8993 16.0996C36.4074 15.6016 35.739 15.3177 35.0392 15.3092V15.3076Z" fill="#DDB79B"/>
<path d="M34.9339 34.2222C34.5905 34.1953 34.2464 34.1683 33.905 34.1304C33.3849 34.0816 32.8702 33.9873 32.3667 33.8484L24.9507 39.3562L30.0714 41.7019L34.9339 34.2222Z" fill="#424242"/>
<path d="M46.6797 43.2927V49.3162H3.32031V43.2927C3.32134 41.3739 3.95263 39.5085 5.11712 37.9833C6.2816 36.4582 7.91481 35.3578 9.76562 34.8513C11.4492 34.3904 13.2188 34.3396 14.9648 34.2107L19.832 41.7029L24.2656 39.6677L24.9492 39.3552L25.6328 39.6677L30.0703 41.7029L34.9336 34.2224C35.4336 34.2615 35.9297 34.2966 36.4219 34.3396C37.7054 34.3965 38.9813 34.5677 40.2344 34.8513C42.0852 35.3578 43.7184 36.4582 44.8829 37.9833C46.0474 39.5085 46.6787 41.3739 46.6797 43.2927Z" fill="#5E8569"/>
<path d="M24.9508 39.3559L17.5715 33.875C17.1791 34.012 16.7669 34.0841 16.3512 34.0887C15.8922 34.1414 15.4297 34.1785 14.9661 34.2117L19.8301 41.7016L24.9508 39.3559Z" fill="#424242"/>
<path d="M25.6328 39.3552V49.3162H24.2656V39.3552C24.2656 39.1739 24.3376 39.0001 24.4658 38.8719C24.594 38.7437 24.7679 38.6716 24.9492 38.6716C25.1305 38.6716 25.3044 38.7437 25.4326 38.8719C25.5608 39.0001 25.6328 39.1739 25.6328 39.3552Z" fill="#424242"/>
<path d="M40.332 43.6013V49.3162H38.9648V43.6013C38.9648 43.42 39.0369 43.2461 39.1651 43.1179C39.2933 42.9897 39.4671 42.9177 39.6484 42.9177C39.8297 42.9177 40.0036 42.9897 40.1318 43.1179C40.26 43.2461 40.332 43.42 40.332 43.6013Z" fill="#424242"/>
<path d="M10.3516 45.4949H14.3895C14.6112 45.495 14.8239 45.5831 14.9807 45.7399C15.1375 45.8968 15.2257 46.1094 15.2258 46.3312C15.2257 46.441 15.2473 46.5498 15.2893 46.6513C15.3313 46.7528 15.393 46.845 15.4706 46.9227C15.5483 47.0004 15.6405 47.062 15.742 47.104C15.8435 47.146 15.9523 47.1676 16.0621 47.1675H19.1223C19.344 47.1676 19.5567 47.2558 19.7135 47.4126C19.8703 47.5694 19.9585 47.7821 19.9586 48.0039V48.48C19.9585 48.7018 19.8703 48.9145 19.7135 49.0713C19.5567 49.2281 19.344 49.3163 19.1223 49.3164H10.3516V45.4949Z" fill="#85BC94"/>
<path d="M45.1503 38.3621H39.9656C39.6548 38.3621 39.3567 38.4855 39.1369 38.7053C38.9172 38.9251 38.7937 39.2231 38.7937 39.5339V39.5828C38.7937 39.8936 38.9172 40.1916 39.1369 40.4114C39.3567 40.6312 39.6548 40.7546 39.9656 40.7546H40.9179C41.2287 40.7546 41.5268 40.8781 41.7466 41.0979C41.9663 41.3176 42.0898 41.6157 42.0898 41.9265C42.0898 42.2373 42.2133 42.5354 42.433 42.7552C42.6528 42.9749 42.9509 43.0984 43.2617 43.0984H46.6714C46.6358 41.4053 46.1072 39.7593 45.1503 38.3621Z" fill="#85BC94"/>
<path d="M29.9516 32.9498L30.9336 32.7495C30.8902 32.6819 30.8469 32.6139 30.8067 32.5385C30.6516 32.2558 30.5498 31.9471 30.5063 31.6276L30.0781 28.2776C28.6084 29.3651 26.8284 29.9521 25 29.9521C23.1717 29.9521 21.3916 29.3651 19.9219 28.2776L19.4922 31.6276C19.4324 32.0293 19.2814 32.412 19.0508 32.7463L20.0465 32.9498C23.3145 33.6173 26.6836 33.6173 29.9516 32.9498Z" fill="#DDB79B"/>
<path d="M30.9334 32.7495L29.9514 32.9499C26.684 33.617 23.3156 33.617 20.0482 32.9499L19.0525 32.7463C18.6931 33.2722 18.1737 33.6681 17.5713 33.8752L24.9506 39.3561L32.3666 33.8483C31.772 33.6668 31.263 33.2766 30.9334 32.7495Z" fill="#85BC94"/>
<path d="M3.59375 41.1118H11.8855C12.1073 41.1118 12.3201 41.0237 12.4769 40.8668C12.6338 40.71 12.7219 40.4972 12.7219 40.2754V39.7993C12.7219 39.6894 12.7003 39.5806 12.6583 39.4792C12.6163 39.3777 12.5547 39.2854 12.477 39.2078C12.3994 39.1301 12.3071 39.0685 12.2057 39.0265C12.1042 38.9845 11.9954 38.9629 11.8855 38.9629H8.82539C8.60361 38.9628 8.39095 38.8747 8.23413 38.7179C8.07731 38.5611 7.98916 38.3484 7.98906 38.1266C7.98911 38.0168 7.96751 37.908 7.9255 37.8065C7.88349 37.705 7.82189 37.6128 7.74422 37.5351C7.66655 37.4575 7.57433 37.3959 7.47284 37.3538C7.37135 37.3118 7.26257 37.2902 7.15273 37.2903H5.71289C4.69431 38.3641 3.96514 39.679 3.59375 41.1118Z" fill="#85BC94"/>
<path d="M29.811 49.3162V47.4119C29.8111 47.0947 29.9372 46.7904 30.1616 46.5661C30.386 46.3418 30.6903 46.2158 31.0075 46.2158H31.0548C31.372 46.2157 31.6763 46.0896 31.9006 45.8652C32.1249 45.6409 32.2509 45.3366 32.2509 45.0193C32.251 44.7021 32.3771 44.3978 32.6015 44.1735C32.8258 43.9492 33.1301 43.8232 33.4474 43.8232H33.4962C33.8134 43.8232 34.1176 43.9493 34.342 44.1736C34.5663 44.3979 34.6923 44.7021 34.6923 45.0193V49.3162H29.811Z" fill="#85BC94"/>
<path d="M35.8398 10.4998V14.0623C35.8392 14.2693 35.7567 14.4676 35.6103 14.614C35.464 14.7604 35.2656 14.8429 35.0586 14.8435H14.9414C14.7344 14.8429 14.536 14.7604 14.3897 14.614C14.2433 14.4676 14.1608 14.2693 14.1602 14.0623V10.4998H35.8398Z" fill="#424242"/>
<path d="M29.4285 0.682617H23.348C19.3562 0.682491 15.5167 2.21503 12.6222 4.96387L10.8226 6.67246C10.6043 6.87966 10.4304 7.12913 10.3116 7.40568C10.1928 7.68223 10.1316 7.98007 10.1316 8.28106C10.1317 8.86913 10.3654 9.43307 10.7812 9.84887C11.1971 10.2647 11.7611 10.4982 12.3492 10.4982H35.8355C36.2819 10.498 36.7215 10.3885 37.1158 10.1793C37.5101 9.97011 37.8472 9.66753 38.0977 9.29801C38.3481 8.92849 38.5043 8.50328 38.5526 8.0595C38.6008 7.61572 38.5397 7.16687 38.3746 6.75215C37.6619 4.96147 36.4283 3.4258 34.8335 2.34375C33.2386 1.2617 31.3558 0.68304 29.4285 0.682617Z" fill="#5E8569"/>
<path d="M27.1362 6.34561L24.9999 7.90967L22.8635 6.34561V3.271H27.1362V6.34561Z" fill="#FBB540"/>
<path d="M16.9805 10.4998H18.3477V14.8435H16.9805V10.4998Z" fill="#707070"/>
<path d="M20.6484 10.4998H22.0156V14.8435H20.6484V10.4998Z" fill="#707070"/>
<path d="M24.3164 10.4998H25.6836V14.8435H24.3164V10.4998Z" fill="#707070"/>
<path d="M27.9844 10.4998H29.3516V14.8435H27.9844V10.4998Z" fill="#707070"/>
<path d="M31.6523 10.4998H33.0195V14.8435H31.6523V10.4998Z" fill="#707070"/>
<path d="M11.0352 43.6013V49.3162H9.66797V43.6013C9.66797 43.42 9.73999 43.2461 9.86819 43.1179C9.99639 42.9897 10.1703 42.9177 10.3516 42.9177C10.5329 42.9177 10.7067 42.9897 10.8349 43.1179C10.9631 43.2461 11.0352 43.42 11.0352 43.6013Z" fill="#424242"/>
<path d="M25.0973 20.8592H25.8622C26.0435 20.8592 26.2173 20.7872 26.3455 20.659C26.4737 20.5308 26.5458 20.3569 26.5458 20.1756C26.5458 19.9943 26.4737 19.8204 26.3455 19.6923C26.2173 19.5641 26.0435 19.492 25.8622 19.492H25.129L25.4024 17.692C25.4158 17.6033 25.4117 17.5127 25.3901 17.4256C25.3686 17.3384 25.3301 17.2563 25.2768 17.1841C25.1692 17.0381 25.0081 16.9409 24.8288 16.9137C24.6495 16.8866 24.4668 16.9318 24.3208 17.0393C24.1748 17.1469 24.0776 17.3081 24.0504 17.4873L23.7735 19.3182C23.7445 19.5089 23.7571 19.7036 23.8103 19.889C23.8635 20.0744 23.9561 20.2461 24.0818 20.3925C24.2075 20.5388 24.3633 20.6562 24.5386 20.7368C24.7138 20.8173 24.9044 20.8591 25.0973 20.8592Z" fill="#332319"/>
<path d="M24.9511 24.8045C25.537 24.8266 26.1208 24.7212 26.662 24.4957C27.2032 24.2702 27.689 23.9298 28.0859 23.4982C28.1459 23.4294 28.1915 23.3492 28.2201 23.2624C28.2486 23.1756 28.2594 23.0839 28.2519 22.9929C28.2443 22.9018 28.2187 22.8132 28.1763 22.7322C28.134 22.6513 28.0758 22.5796 28.0053 22.5215C27.9348 22.4634 27.8534 22.42 27.7658 22.394C27.6783 22.3679 27.5864 22.3596 27.4955 22.3696C27.4047 22.3796 27.3169 22.4078 27.2371 22.4523C27.1573 22.4969 27.0873 22.557 27.0312 22.6291C26.761 22.9028 26.436 23.1162 26.0775 23.2555C25.7191 23.3948 25.3352 23.4567 24.9511 23.4373C24.5669 23.4567 24.183 23.3948 23.8245 23.2554C23.4659 23.1161 23.1409 22.9025 22.8707 22.6287C22.7534 22.4957 22.589 22.4135 22.4122 22.3994C22.2355 22.3853 22.0602 22.4404 21.9233 22.5532C21.7864 22.6659 21.6987 22.8274 21.6787 23.0036C21.6587 23.1798 21.7079 23.3569 21.816 23.4975C22.2129 23.9292 22.6987 24.2696 23.24 24.4952C23.7813 24.7209 24.3651 24.8264 24.9511 24.8045Z" fill="#332319"/>
<path d="M32.8978 37.354C32.8226 37.3049 32.7384 37.2712 32.6501 37.2548C32.5618 37.2383 32.4711 37.2394 32.3832 37.258C32.2954 37.2766 32.212 37.3124 32.138 37.3632C32.0639 37.4141 32.0006 37.479 31.9517 37.5544L31.7888 37.8052C31.6901 37.9572 31.6557 38.1423 31.6934 38.3196C31.731 38.497 31.8376 38.6521 31.9896 38.7509C32.1417 38.8497 32.3267 38.884 32.5041 38.8464C32.6814 38.8087 32.8366 38.7021 32.9353 38.5501L33.0982 38.2993C33.1969 38.1474 33.2313 37.9624 33.1937 37.7852C33.1561 37.6079 33.0497 37.4528 32.8978 37.354Z" fill="#332319"/>
<path d="M47.3546 43.0857C47.3049 41.0547 46.6034 39.0934 45.3538 37.4915C44.1042 35.8896 42.3727 34.7319 40.4148 34.1893C39.3255 33.9257 38.2138 33.765 37.0945 33.7092C36.5929 33.6701 35.8945 33.6053 34.9738 33.5397C34.7746 33.5201 34.6117 33.5115 34.0003 33.4525L33.7011 33.4135C33.3212 33.3759 32.9454 33.3038 32.5785 33.1982C32.1334 33.0663 31.7526 32.7751 31.5085 32.3803C31.4746 32.3268 31.4398 32.2725 31.4082 32.2147C31.2926 32.0058 31.2167 31.7773 31.1843 31.5408L30.807 28.5908C32.0261 27.6078 32.9752 26.3308 33.5648 24.8799C33.9633 23.7981 34.2585 22.681 34.4464 21.5436C34.4648 21.449 34.4855 21.3568 34.5035 21.2627C34.6803 21.2938 34.8595 21.3101 35.039 21.3115C35.816 21.3121 36.569 21.0419 37.1683 20.5474C37.7677 20.0529 38.176 19.365 38.323 18.602C38.47 17.839 38.3465 17.0486 37.9738 16.3668C37.6011 15.685 37.0024 15.1544 36.2808 14.8662C36.439 14.6279 36.5233 14.3483 36.5234 14.0623V11.1057C37.0129 11.0063 37.4745 10.8006 37.8757 10.5032C38.277 10.2057 38.6079 9.82373 38.8452 9.38424C39.0825 8.94476 39.2203 8.4585 39.249 7.95987C39.2776 7.46123 39.1963 6.9624 39.0109 6.49864C38.2532 4.57689 36.9332 2.92851 35.2236 1.76903C33.5139 0.609554 31.4942 -0.00706216 29.4285 -0.000187273H23.348C20.3559 -0.000945899 17.4216 0.824431 14.8687 2.38497C14.7906 2.43101 14.7224 2.49215 14.6681 2.56481C14.6138 2.63747 14.5745 2.72021 14.5525 2.8082C14.5306 2.8962 14.5263 2.98768 14.54 3.07734C14.5537 3.16699 14.5852 3.25302 14.6325 3.33041C14.6798 3.40779 14.742 3.475 14.8155 3.5281C14.8891 3.5812 14.9724 3.61914 15.0607 3.6397C15.1491 3.66027 15.2406 3.66305 15.33 3.64789C15.4195 3.63272 15.505 3.59991 15.5816 3.55138C17.92 2.12236 20.6075 1.36648 23.348 1.367H29.4285C31.2204 1.36112 32.9723 1.89605 34.4553 2.90185C35.9383 3.90765 37.0833 5.33751 37.7406 7.0045C37.8646 7.31561 37.9106 7.65236 37.8744 7.98532C37.8382 8.31829 37.721 8.63732 37.5331 8.91453C37.3451 9.19174 37.0921 9.41869 36.7962 9.57554C36.5003 9.73238 36.1704 9.81435 35.8355 9.81427H12.3492C12.0425 9.81409 11.7429 9.72197 11.4891 9.54981C11.2354 9.37766 11.039 9.13337 10.9255 8.84849C10.8119 8.56362 10.7864 8.25125 10.8522 7.95171C10.9179 7.65218 11.072 7.37925 11.2945 7.16817L13.0945 5.45958C13.1596 5.39774 13.2119 5.32368 13.2483 5.24164C13.2848 5.1596 13.3048 5.07117 13.3071 4.98141C13.3094 4.89166 13.294 4.80233 13.2618 4.71852C13.2295 4.63471 13.1811 4.55807 13.1193 4.49298C13.0574 4.42788 12.9834 4.3756 12.9013 4.33912C12.8193 4.30265 12.7309 4.28269 12.6411 4.28038C12.5514 4.27808 12.462 4.29348 12.3782 4.3257C12.2944 4.35792 12.2178 4.40633 12.1527 4.46817L10.3515 6.17677C9.93069 6.57621 9.63933 7.09267 9.51506 7.65942C9.3908 8.22617 9.43935 8.81717 9.65445 9.35604C9.86954 9.89491 10.2413 10.3569 10.7217 10.6823C11.202 11.0077 11.769 11.1816 12.3492 11.1815H13.4765V14.0623C13.4773 14.3365 13.5559 14.6048 13.7031 14.8361C12.9674 15.1079 12.3507 15.6299 11.9612 16.3106C11.5716 16.9913 11.4339 17.7874 11.5722 18.5594C11.7106 19.3314 12.1161 20.0301 12.7178 20.5332C13.3194 21.0363 14.0789 21.3117 14.8632 21.3111C15.0747 21.3099 15.2856 21.2884 15.4929 21.2467C15.5128 21.3459 15.5339 21.442 15.5535 21.5432C15.7412 22.6818 16.0367 23.7999 16.4359 24.8826C17.0251 26.3335 17.9739 27.6106 19.1929 28.5936L18.8167 31.5361C18.7713 31.8341 18.6584 32.1177 18.4867 32.3654C18.2082 32.7689 17.8075 33.0723 17.3437 33.2311C17.0207 33.3432 16.6817 33.4021 16.3398 33.4053C16.3175 33.4053 16.2957 33.4053 16.2738 33.4096C15.8003 33.4643 15.323 33.5014 14.9179 33.5303C14.6503 33.5494 14.382 33.567 14.114 33.5846C12.5881 33.6334 11.071 33.8363 9.58589 34.1904C7.59113 34.7378 5.8311 35.9246 4.57591 37.5688C3.32073 39.2129 2.63973 41.2235 2.63745 43.292V49.3162C2.63755 49.4973 2.7095 49.671 2.83751 49.7992C2.96552 49.9274 3.13913 49.9995 3.32026 49.9998H46.6796C46.8609 49.9998 47.0348 49.9278 47.163 49.7996C47.2912 49.6714 47.3632 49.4975 47.3632 49.3162V43.2939C47.3632 43.224 47.3562 43.1561 47.3546 43.0857ZM45.0136 39.4459C45.5099 40.3671 45.8249 41.3749 45.9418 42.4147H43.2617C43.1322 42.4146 43.0081 42.3631 42.9165 42.2715C42.825 42.18 42.7735 42.0558 42.7734 41.9264C42.7728 41.4345 42.5771 40.9629 42.2293 40.615C41.8814 40.2672 41.4098 40.0715 40.9179 40.0709H39.9656C39.8361 40.0707 39.7121 40.0192 39.6205 39.9277C39.529 39.8361 39.4775 39.7121 39.4773 39.5826V39.5338C39.4775 39.4044 39.529 39.2803 39.6205 39.1888C39.7121 39.0972 39.8361 39.0457 39.9656 39.0455H44.7769C44.8589 39.1795 44.9394 39.3104 45.0136 39.4471V39.4459ZM18.8339 33.9615C19.0134 33.8239 19.1795 33.6697 19.33 33.501L19.9117 33.6182C23.2687 34.3076 26.7308 34.3076 30.0878 33.6182L30.6445 33.5045C30.7796 33.6643 30.93 33.8104 31.0937 33.9408L25.5828 38.0357L24.9507 38.5045L21.1898 35.7111L18.8339 33.9615ZM37.0156 17.9686C37.015 18.4926 36.8065 18.9949 36.4359 19.3654C36.0654 19.7359 35.563 19.9442 35.039 19.9447C34.9541 19.9447 34.8693 19.9389 34.7851 19.9275C35.055 18.5568 35.4 17.5975 35.4562 16.0365C35.8975 16.1323 36.2928 16.3762 36.5765 16.7276C36.8601 17.0791 37.0151 17.5169 37.0156 17.9686ZM35.1562 14.0623C35.1562 14.0882 35.1459 14.1131 35.1276 14.1314C35.1093 14.1497 35.0844 14.16 35.0585 14.16H33.0199V11.1815H35.1562V14.0623ZM29.3519 14.16V11.1815H31.6527V14.16H29.3519ZM22.0152 14.16V11.1815H24.3164V14.16H22.0152ZM20.648 14.16H18.3472V11.1815H20.648V14.16ZM25.6835 11.1815H27.9847V14.16H25.6835V11.1815ZM16.98 11.1815V14.16H14.941C14.9152 14.1598 14.8905 14.1494 14.8723 14.1311C14.8541 14.1128 14.8438 14.0881 14.8437 14.0623V11.1815H16.98ZM14.8632 19.944C14.3666 19.9445 13.8879 19.758 13.5225 19.4216C13.1571 19.0851 12.9318 18.6235 12.8915 18.1285C12.8511 17.6334 12.9986 17.1413 13.3046 16.7502C13.6106 16.359 14.0527 16.0974 14.5429 16.0174C14.5039 16.8451 14.9816 18.8842 15.2113 19.9127C15.0964 19.9335 14.9799 19.944 14.8632 19.944ZM17.7027 24.3662C17.3383 23.3642 17.0679 22.3304 16.8949 21.2783C16.8246 20.9221 16.7546 20.5674 16.6785 20.2182L16.3796 18.8541L16.0898 17.526C15.9573 16.8681 15.8968 16.1977 15.9093 15.5268H19.1015C19.0855 15.6127 19.0766 15.6999 19.075 15.7873C19.0816 16.2146 19.256 16.6221 19.5605 16.922C19.865 17.2218 20.2752 17.3898 20.7025 17.3898C21.1298 17.3898 21.54 17.2218 21.8445 16.922C22.149 16.6221 22.3234 16.2146 22.33 15.7873C22.3285 15.6999 22.3197 15.6127 22.3039 15.5268H27.6953C27.6523 15.7615 27.6615 16.0028 27.7222 16.2336C27.7829 16.4643 27.8935 16.679 28.0463 16.8622C28.1991 17.0455 28.3903 17.193 28.6064 17.2941C28.8225 17.3953 29.0582 17.4478 29.2968 17.4478C29.5354 17.4478 29.7711 17.3953 29.9872 17.2941C30.2033 17.193 30.3946 17.0455 30.5474 16.8622C30.7002 16.679 30.8108 16.4643 30.8715 16.2336C30.9321 16.0028 30.9413 15.7615 30.8984 15.5268H34.0906V15.8463C34.0901 16.411 34.0298 16.974 33.9105 17.526L33.3136 20.2525V20.2568C33.2406 20.5932 33.1726 20.9342 33.105 21.2779C32.9319 22.3293 32.6618 23.3624 32.298 24.3639C31.7642 25.6768 30.8854 26.8211 29.7546 27.6756C29.7013 27.7043 29.652 27.7401 29.6082 27.7818C28.2655 28.747 26.6537 29.2662 25.0002 29.2662C23.3466 29.2662 21.7348 28.747 20.3921 27.7818C20.348 27.7395 20.2984 27.7033 20.2445 27.6744C19.1144 26.8211 18.2361 25.678 17.7027 24.3662ZM25 30.6354C26.5893 30.6376 28.1524 30.2304 29.5386 29.4529L29.8277 31.7139C29.8518 31.8969 29.892 32.0774 29.948 32.2533L29.8144 32.2807C26.6378 32.9336 23.3617 32.9336 20.1851 32.2807L20.0433 32.2518C20.1014 32.0768 20.1445 31.8973 20.1722 31.715L20.4613 29.4529C21.8475 30.2305 23.4106 30.6377 25 30.6354ZM16.3976 34.7717C16.7494 34.764 17.0992 34.7163 17.4402 34.6295L19.014 35.7982L23.6156 39.2162L20.082 40.8346L16.1613 34.7971C16.2398 34.7889 16.3187 34.7807 16.3976 34.7717ZM4.62183 40.2162C4.95744 39.3959 5.42874 38.6379 6.01597 37.974H7.15269C7.19319 37.974 7.23204 37.9901 7.26069 38.0188C7.28933 38.0474 7.30542 38.0863 7.30542 38.1268C7.30635 38.5296 7.46678 38.9156 7.75162 39.2005C8.03646 39.4853 8.42252 39.6458 8.82534 39.6467H11.8855C11.9056 39.6467 11.9254 39.6506 11.9439 39.6583C11.9625 39.666 11.9793 39.6772 11.9935 39.6914C12.0077 39.7056 12.0189 39.7224 12.0266 39.741C12.0343 39.7595 12.0382 39.7794 12.0382 39.7994V40.2752C12.0382 40.3157 12.0222 40.3546 11.9935 40.3833C11.9649 40.412 11.926 40.4282 11.8855 40.4283H4.5394C4.56636 40.3572 4.59292 40.2861 4.62183 40.2162ZM4.00386 43.2939C4.0054 42.7914 4.05431 42.2901 4.14995 41.7967H11.8843C12.2872 41.7958 12.6733 41.6353 12.9582 41.3503C13.243 41.0654 13.4034 40.6793 13.4042 40.2764V39.8006C13.4032 39.398 13.2429 39.0123 12.9583 38.7275C12.6738 38.4428 12.2881 38.2823 11.8855 38.2811H8.82534C8.78483 38.2811 8.74599 38.265 8.71734 38.2363C8.6887 38.2077 8.67261 38.1688 8.67261 38.1283C8.67185 37.7863 8.55576 37.4545 8.34311 37.1867C8.13045 36.9188 7.83367 36.7305 7.50073 36.6522C8.24523 36.1353 9.0719 35.7483 9.94565 35.5076C11.3424 35.1778 12.7689 34.99 14.2035 34.9471L14.6132 34.9197L19.2578 42.074C19.3472 42.2119 19.4832 42.3129 19.641 42.3587C19.7988 42.4044 19.9678 42.3918 20.1171 42.3232L24.2691 40.4213V48.6326H20.625C20.6327 48.582 20.6379 48.531 20.6406 48.4799V48.0037C20.6395 47.6012 20.4793 47.2155 20.1948 46.9308C19.9103 46.6461 19.5247 46.4855 19.1222 46.4842H16.0621C16.0216 46.4842 15.9827 46.4681 15.9541 46.4394C15.9254 46.4108 15.9093 46.372 15.9093 46.3315C15.9084 45.9286 15.748 45.5426 15.4631 45.2577C15.1783 44.9729 14.7922 44.8125 14.3894 44.8115H11.0351V43.6037C11.0351 43.4224 10.9631 43.2485 10.8349 43.1203C10.7067 42.9921 10.5328 42.9201 10.3515 42.9201C10.1702 42.9201 9.99634 42.9921 9.86814 43.1203C9.73994 43.2485 9.66792 43.4224 9.66792 43.6037V48.6326H4.00386V43.2939ZM11.0351 48.6326V46.1783H14.3894C14.4299 46.1784 14.4687 46.1945 14.4973 46.2232C14.5259 46.2518 14.542 46.2906 14.5421 46.3311C14.5431 46.7339 14.7035 47.1199 14.9883 47.4048C15.2732 47.6896 15.6592 47.8501 16.0621 47.851H19.1222C19.1627 47.8511 19.2015 47.8672 19.2301 47.8958C19.2587 47.9244 19.2749 47.9632 19.275 48.0037V48.4799C19.2749 48.5204 19.2587 48.5592 19.2301 48.5878C19.2015 48.6164 19.1627 48.6325 19.1222 48.6326H11.0351ZM30.4945 48.6326V47.4119C30.4947 47.276 30.5488 47.1457 30.645 47.0496C30.7411 46.9535 30.8714 46.8995 31.0074 46.8994H31.0546C31.553 46.8988 32.0308 46.7005 32.3832 46.348C32.7356 45.9956 32.9338 45.5177 32.9343 45.0193C32.9345 44.8834 32.9887 44.7531 33.0848 44.657C33.181 44.561 33.3113 44.5069 33.4472 44.5068H33.496C33.6319 44.5069 33.7622 44.561 33.8583 44.6571C33.9544 44.7532 34.0084 44.8834 34.0085 45.0193V48.6326H30.4945ZM40.332 48.6326V43.6033C40.332 43.422 40.26 43.2481 40.1318 43.12C40.0036 42.9918 39.8297 42.9197 39.6484 42.9197C39.4671 42.9197 39.2932 42.9918 39.165 43.12C39.0368 43.2481 38.9648 43.422 38.9648 43.6033V48.6326H35.3757V45.0193C35.3752 44.521 35.177 44.0432 34.8246 43.6908C34.4722 43.3384 33.9944 43.1402 33.496 43.1397H33.4472C32.9488 43.1402 32.471 43.3384 32.1185 43.6907C31.7661 44.0431 31.5678 44.5209 31.5671 45.0193C31.567 45.1553 31.513 45.2856 31.4169 45.3818C31.3209 45.4779 31.1906 45.532 31.0546 45.5322H31.0074C30.509 45.5327 30.0311 45.7309 29.6787 46.0833C29.3262 46.4357 29.1279 46.9135 29.1273 47.4119V48.6326H25.6347V40.4213L29.7871 42.3232C29.9363 42.392 30.1053 42.4046 30.2631 42.3589C30.4209 42.3133 30.557 42.2122 30.6464 42.0744L31.5082 40.7486C31.5571 40.6734 31.5907 40.5892 31.6071 40.5009C31.6234 40.4126 31.6223 40.322 31.6036 40.2342C31.585 40.1464 31.5492 40.0631 31.4984 39.9891C31.4476 39.9151 31.3827 39.8518 31.3074 39.8029C31.2321 39.754 31.1479 39.7204 31.0597 39.704C30.9714 39.6877 30.8808 39.6888 30.7929 39.7075C30.7051 39.7261 30.6218 39.7619 30.5478 39.8127C30.4738 39.8635 30.4106 39.9284 30.3617 40.0037L29.8214 40.8346L26.2878 39.2162L32.5054 34.5967C32.8421 34.6728 33.1827 34.7304 33.5257 34.7693L33.7441 34.7982L33.3812 35.3561C33.2824 35.5081 33.2481 35.6932 33.2858 35.8706C33.3235 36.048 33.4301 36.2032 33.5822 36.302C33.7343 36.4007 33.9194 36.4351 34.0968 36.3974C34.2741 36.3597 34.4293 36.2531 34.5281 36.101L35.2859 34.935H35.3101C35.6617 34.9619 36.0132 34.9893 36.3609 35.0193C36.5683 35.0377 36.7769 35.0545 36.9859 35.0713C38.02 35.1209 39.0472 35.2668 40.0543 35.5072C41.4444 35.8896 42.7062 36.6388 43.7074 37.6764H39.966C39.4741 37.677 39.0025 37.8727 38.6546 38.2205C38.3068 38.5683 38.1111 39.0399 38.1105 39.5318V39.5807C38.1111 40.0726 38.3068 40.5442 38.6546 40.892C39.0025 41.2398 39.4741 41.4355 39.966 41.4361H40.9183C41.0478 41.4363 41.1718 41.4879 41.2634 41.5794C41.3549 41.6709 41.4064 41.795 41.4066 41.9244C41.4072 42.4163 41.6029 42.8879 41.9507 43.2357C42.2986 43.5836 42.7702 43.7793 43.2621 43.7799H45.9964V48.6326H40.332Z" fill="#332319"/>
<path d="M24.5962 8.46113C24.7134 8.54669 24.8548 8.59279 24.9999 8.59279C25.145 8.59279 25.2864 8.54669 25.4036 8.46113L27.5399 6.89863C27.6267 6.83521 27.6973 6.7522 27.746 6.65636C27.7946 6.56052 27.82 6.45456 27.82 6.34707V3.27051C27.8199 3.08924 27.7479 2.91542 27.6197 2.78725C27.4915 2.65907 27.3177 2.58702 27.1364 2.58691H22.8638C22.6825 2.58702 22.5087 2.65907 22.3805 2.78725C22.2523 2.91542 22.1803 3.08924 22.1802 3.27051V6.3459C22.1802 6.45338 22.2055 6.55935 22.2542 6.65519C22.3029 6.75103 22.3735 6.83404 22.4603 6.89746L24.5962 8.46113ZM23.5474 3.9541H26.4528V5.99902L25.0001 7.0623L23.5474 5.99902V3.9541Z" fill="#332319"/>
</g>
<defs>
<clipPath id="clip0">
<rect width="50" height="50" fill="white"/>
</clipPath>
</defs>
</svg>
