<svg width="50" height="50" viewBox="0 0 50 50" fill="none" xmlns="http://www.w3.org/2000/svg">
<path d="M28.8352 0H22.0704H15.3055L11.9709 6.66904L14.5917 7.97939L17.1165 2.92969H22.0704H27.0243L29.5491 7.97939L32.1698 6.66904L28.8352 0Z" fill="#60474F"/>
<path d="M29.549 7.97939L32.1697 6.66904L28.8352 0H22.0703V2.92969H27.0242L29.549 7.97939Z" fill="#3F303A"/>
<path d="M22.0703 12.6001H0V35.2537H22.0703H44.043V12.6001H22.0703Z" fill="#60474F"/>
<path d="M22.0703 12.6001H44.043V35.2537H22.0703V12.6001Z" fill="#3F303A"/>
<path d="M22.0703 5.85938H0V12.6003L9.90381 19.1378L22.0703 19.1392L34.2325 19.1406L44.043 12.6003V5.85938H22.0703Z" fill="#C47E4E"/>
<path d="M44.043 12.6003V5.85938H22.0703V19.1392L34.2325 19.1406L44.043 12.6003Z" fill="#9B5E34"/>
<path d="M36.7188 23.5352C29.4376 23.5352 23.5352 29.4376 23.5352 36.7188C23.5352 43.9999 29.4376 50 36.7188 50C43.9999 50 50 43.9999 50 36.7188C50 29.4376 43.9999 23.5352 36.7188 23.5352Z" fill="#FD697F"/>
<path d="M50 36.7188C50 29.4376 43.9999 23.5352 36.7188 23.5352V50C43.9999 50 50 43.9999 50 36.7188Z" fill="#E6455D"/>
<path d="M42.9315 32.5772L40.8601 30.5059L36.7188 34.6472L32.5775 30.5059L30.5061 32.5772L34.6474 36.7186L30.5061 40.8599L32.5775 42.9313L36.7188 38.7899L40.8601 42.9313L42.9315 40.8599L38.7902 36.7186L42.9315 32.5772Z" fill="#60474F"/>
<path d="M42.9314 40.8599L38.7901 36.7186L42.9314 32.5772L40.8601 30.5059L36.7188 34.6472V38.7899L40.8601 42.9313L42.9314 40.8599Z" fill="#3F303A"/>
<path d="M13.2812 23.5352C10.858 23.5352 8.88672 21.5639 8.88672 19.1406V14.7461H17.6758V19.1406C17.6758 21.5639 15.7045 23.5352 13.2812 23.5352Z" fill="#FFEA80"/>
<path d="M30.8594 23.5352C28.4361 23.5352 26.4648 21.5639 26.4648 19.1406V14.7461H35.2539V19.1406C35.2539 21.5639 33.2826 23.5352 30.8594 23.5352Z" fill="#FFC34D"/>
</svg>
