<svg width="30" height="30" viewBox="0 0 30 30" fill="none" xmlns="http://www.w3.org/2000/svg">
<path opacity="0.3" d="M15 8.75C11.55 8.75 8.75 11.55 8.75 15C8.75 18.45 11.55 21.25 15 21.25C18.45 21.25 21.25 18.45 21.25 15C21.25 11.55 18.45 8.75 15 8.75ZM17.1875 10C17.875 10 18.4375 10.5625 18.4375 11.25C18.4375 11.9375 17.875 12.5 17.1875 12.5C16.5 12.5 15.9375 11.9375 15.9375 11.25C15.9375 10.5625 16.5 10 17.1875 10ZM12.8125 10C13.5 10 14.0625 10.5625 14.0625 11.25C14.0625 11.9375 13.5 12.5 12.8125 12.5C12.125 12.5 11.5625 11.9375 11.5625 11.25C11.5625 10.5625 12.125 10 12.8125 10ZM10.625 16.25C9.9375 16.25 9.375 15.6875 9.375 15C9.375 14.3125 9.9375 13.75 10.625 13.75C11.3125 13.75 11.875 14.3125 11.875 15C11.875 15.6875 11.3125 16.25 10.625 16.25ZM12.8125 20C12.125 20 11.5625 19.4375 11.5625 18.75C11.5625 18.0625 12.125 17.5 12.8125 17.5C13.5 17.5 14.0625 18.0625 14.0625 18.75C14.0625 19.4375 13.5 20 12.8125 20ZM15 16.25C14.3125 16.25 13.75 15.6875 13.75 15C13.75 14.3125 14.3125 13.75 15 13.75C15.6875 13.75 16.25 14.3125 16.25 15C16.25 15.6875 15.6875 16.25 15 16.25ZM17.1875 20C16.5 20 15.9375 19.4375 15.9375 18.75C15.9375 18.0625 16.5 17.5 17.1875 17.5C17.875 17.5 18.4375 18.0625 18.4375 18.75C18.4375 19.4375 17.875 20 17.1875 20ZM19.375 16.25C18.6875 16.25 18.125 15.6875 18.125 15C18.125 14.3125 18.6875 13.75 19.375 13.75C20.0625 13.75 20.625 14.3125 20.625 15C20.625 15.6875 20.0625 16.25 19.375 16.25Z" fill="white"/>
<path d="M11.875 15C11.875 15.6875 11.3125 16.25 10.625 16.25C9.9375 16.25 9.375 15.6875 9.375 15C9.375 14.3125 9.9375 13.75 10.625 13.75C11.3125 13.75 11.875 14.3125 11.875 15ZM17.1875 12.5C17.875 12.5 18.4375 11.9375 18.4375 11.25C18.4375 10.5625 17.875 10 17.1875 10C16.5 10 15.9375 10.5625 15.9375 11.25C15.9375 11.9375 16.5 12.5 17.1875 12.5ZM12.8125 12.5C13.5 12.5 14.0625 11.9375 14.0625 11.25C14.0625 10.5625 13.5 10 12.8125 10C12.125 10 11.5625 10.5625 11.5625 11.25C11.5625 11.9375 12.125 12.5 12.8125 12.5ZM12.8125 17.5C12.125 17.5 11.5625 18.0625 11.5625 18.75C11.5625 19.4375 12.125 20 12.8125 20C13.5 20 14.0625 19.4375 14.0625 18.75C14.0625 18.0625 13.5 17.5 12.8125 17.5ZM27.5 14.0625V15.9375C27.5 16.45 27.075 16.875 26.5625 16.875C26.05 16.875 25.625 16.45 25.625 15.9375H23.7C23.5198 17.6097 22.86 19.1942 21.8 20.5L23.1625 21.8625L23.175 21.85C23.5375 21.4875 24.1375 21.4875 24.5 21.85C24.8625 22.2125 24.8625 22.8125 24.5 23.175L23.175 24.5C22.8125 24.8625 22.2125 24.8625 21.85 24.5C21.6771 24.3261 21.5791 24.0915 21.5767 23.8463C21.5744 23.6011 21.668 23.3647 21.8375 23.1875L20.475 21.825C19.1698 22.876 17.5909 23.531 15.925 23.7125V25.6375H15.9375C16.45 25.6375 16.875 26.0625 16.875 26.575C16.875 27.0875 16.45 27.5125 15.9375 27.5125H14.0625C13.55 27.5125 13.125 27.0875 13.125 26.575C13.125 26.0625 13.5375 25.65 14.05 25.6375V23.7C12.3873 23.5208 10.8117 22.8654 9.5125 21.8125L8.15 23.175L8.1625 23.1875C8.525 23.55 8.525 24.15 8.1625 24.5125C7.8 24.875 7.2 24.875 6.8375 24.5125L5.5 23.175C5.32565 22.9986 5.22787 22.7605 5.22787 22.5125C5.22787 22.2645 5.32565 22.0264 5.5 21.85C5.8625 21.4875 6.45 21.4875 6.8125 21.8375L8.175 20.475C7.123 19.1765 6.47152 17.5999 6.3 15.9375H4.375C4.375 16.45 3.95 16.875 3.4375 16.875C2.925 16.875 2.5 16.45 2.5 15.9375V14.0625C2.5 13.55 2.925 13.125 3.4375 13.125C3.95 13.125 4.375 13.55 4.375 14.0625H6.3C6.4875 12.35 7.1625 10.8 8.175 9.525L6.8125 8.1625C6.45 8.5125 5.8625 8.5125 5.5 8.15C5.32565 7.97358 5.22787 7.73554 5.22787 7.4875C5.22787 7.23946 5.32565 7.00142 5.5 6.825L6.825 5.5C7.1875 5.1375 7.7875 5.1375 8.15 5.5C8.5125 5.8625 8.5125 6.4625 8.15 6.825L8.1375 6.8375L9.5 8.2C10.8005 7.14919 12.3754 6.49405 14.0375 6.3125V4.375C13.7913 4.37075 13.5566 4.27022 13.3837 4.09497C13.2108 3.91972 13.1134 3.6837 13.1125 3.4375C13.1189 3.18874 13.2215 2.95213 13.3986 2.77734C13.5757 2.60255 13.8137 2.50315 14.0625 2.5H15.9375C16.45 2.5 16.875 2.925 16.875 3.4375C16.875 3.95 16.45 4.375 15.9375 4.375H15.925V6.3C17.6375 6.475 19.2 7.1625 20.475 8.1875L21.8375 6.825C21.7521 6.73804 21.6846 6.63509 21.639 6.52204C21.5934 6.40899 21.5705 6.28806 21.5717 6.16616C21.5728 6.04426 21.598 5.92378 21.6458 5.81162C21.6935 5.69946 21.7629 5.59782 21.85 5.5125C22.2125 5.15 22.8125 5.15 23.175 5.5125L24.5 6.8375C24.8625 7.2 24.8625 7.8 24.5 8.1625C24.1375 8.525 23.5375 8.525 23.175 8.1625L23.1625 8.15L21.8 9.5C22.8571 10.8076 23.5165 12.3911 23.7 14.0625H25.625C25.625 13.55 26.05 13.125 26.5625 13.125C27.075 13.125 27.5 13.55 27.5 14.0625ZM21.25 15C21.25 11.55 18.45 8.75 15 8.75C11.55 8.75 8.75 11.55 8.75 15C8.75 18.45 11.55 21.25 15 21.25C18.45 21.25 21.25 18.45 21.25 15ZM15 13.75C14.3125 13.75 13.75 14.3125 13.75 15C13.75 15.6875 14.3125 16.25 15 16.25C15.6875 16.25 16.25 15.6875 16.25 15C16.25 14.3125 15.6875 13.75 15 13.75ZM19.375 13.75C18.6875 13.75 18.125 14.3125 18.125 15C18.125 15.6875 18.6875 16.25 19.375 16.25C20.0625 16.25 20.625 15.6875 20.625 15C20.625 14.3125 20.0625 13.75 19.375 13.75ZM17.1875 17.5C16.5 17.5 15.9375 18.0625 15.9375 18.75C15.9375 19.4375 16.5 20 17.1875 20C17.875 20 18.4375 19.4375 18.4375 18.75C18.4375 18.0625 17.875 17.5 17.1875 17.5Z" fill="white"/>
</svg>
